<svg id="svg" version="1.1" xmlns="http://www.w3.org/2000/svg" xmlns:xlink="http://www.w3.org/1999/xlink" width="400" height="396.94072657743783" viewBox="0, 0, 400,396.94072657743783"><g id="svgg"><path id="path0" d="M182.027 24.485 C 110.739 29.255,65.389 101.097,91.798 167.424 C 105.437 201.679,136.728 226.180,173.741 231.586 C 182.795 232.909,197.330 232.757,205.354 231.256 C 206.909 230.965,206.737 230.778,207.516 233.603 L 208.163 235.946 215.029 236.014 C 220.738 236.071,222.112 236.014,223.185 235.676 C 224.394 235.295,227.183 234.273,227.357 234.146 C 227.426 234.097,226.100 229.070,225.400 226.724 L 225.158 225.915 227.238 225.090 C 275.177 206.085,301.983 153.208,289.200 102.868 C 276.921 54.519,231.345 21.185,182.027 24.485 M196.813 41.832 C 263.022 48.630,297.651 124.184,259.455 178.503 C 218.238 237.119,127.424 223.184,105.476 154.876 C 87.857 100.042,126.699 44.790,185.214 41.451 C 187.415 41.326,193.983 41.541,196.813 41.832 M165.711 58.860 C 129.148 70.823,107.887 109.349,117.436 146.335 C 118.634 150.974,121.440 152.738,124.887 151.020 C 127.613 149.662,128.164 147.762,127.095 143.409 C 119.191 111.233,137.789 78.249,169.421 68.343 C 174.001 66.909,175.351 65.481,175.091 62.345 C 174.744 58.153,171.526 56.958,165.711 58.860 M128.606 160.326 C 124.647 162.125,124.905 166.311,129.300 171.574 C 129.710 172.065,130.745 173.384,131.601 174.506 C 133.671 177.219,140.082 183.602,141.423 184.287 C 144.807 186.013,148.621 183.510,148.628 179.558 C 148.631 178.077,148.115 177.338,144.840 174.124 C 141.473 170.821,139.087 167.973,135.900 163.454 C 133.392 159.899,131.414 159.051,128.606 160.326 M147.173 187.796 C 145.074 188.831,144.593 192.270,146.417 193.209 C 147.215 193.620,147.587 193.957,147.497 194.190 C 147.422 194.385,147.454 194.488,147.567 194.418 C 147.681 194.347,148.110 194.467,148.521 194.684 C 149.386 195.140,151.751 195.224,151.892 194.803 C 151.944 194.647,152.120 194.517,152.284 194.516 C 152.596 194.512,153.728 192.923,153.728 192.488 C 153.728 192.348,153.422 192.157,153.046 192.063 C 151.433 191.658,149.443 189.873,148.747 188.209 C 148.352 187.263,148.288 187.246,147.173 187.796 M70.183 236.443 C 66.015 237.746,64.882 240.119,64.882 247.546 C 64.882 255.202,66.477 258.073,71.059 258.663 L 72.020 258.786 71.051 258.418 C 66.829 256.813,65.682 254.250,65.818 246.722 C 65.939 240.020,67.164 237.805,71.511 236.431 C 72.276 236.189,72.371 236.108,71.893 236.108 C 71.542 236.108,70.773 236.259,70.183 236.443 M108.354 236.520 C 107.866 236.766,107.207 237.356,106.888 237.832 L 106.310 238.699 106.310 256.252 C 106.310 273.635,106.315 273.805,106.820 273.805 C 107.325 273.805,107.330 273.635,107.330 256.278 C 107.332 236.388,107.203 237.589,109.438 236.575 C 110.336 236.167,110.410 236.084,109.879 236.080 C 109.528 236.077,108.842 236.275,108.354 236.520 M136.393 248.017 C 136.393 259.635,136.406 259.972,136.902 260.421 C 137.412 260.881,137.412 260.866,137.412 248.478 C 137.412 236.244,137.405 236.074,136.902 236.074 C 136.400 236.074,136.393 236.244,136.393 248.017 M147.610 239.898 C 147.610 243.552,147.633 243.722,148.120 243.722 C 148.607 243.722,148.630 243.552,148.630 239.898 C 148.630 236.244,148.607 236.074,148.120 236.074 C 147.633 236.074,147.610 236.244,147.610 239.898 M188.910 239.898 C 188.910 243.552,188.933 243.722,189.420 243.722 C 189.907 243.722,189.930 243.552,189.930 239.898 C 189.930 236.244,189.907 236.074,189.420 236.074 C 188.933 236.074,188.910 236.244,188.910 239.898 M235.849 236.368 C 231.836 237.522,230.618 239.789,230.510 246.299 L 230.428 251.297 223.754 253.138 C 220.084 254.150,216.307 255.204,215.360 255.479 L 213.639 255.981 213.639 259.667 C 213.639 261.694,213.700 263.352,213.775 263.352 C 213.895 263.352,228.899 259.208,230.034 258.861 C 230.441 258.736,230.486 258.862,230.416 259.932 L 230.338 261.144 221.989 263.445 L 213.639 265.745 213.639 269.775 L 213.639 273.805 211.318 273.805 C 209.567 273.805,209.025 273.883,209.114 274.124 C 209.178 274.299,210.012 278.253,210.967 282.910 L 212.702 291.377 221.265 291.450 C 231.791 291.540,233.014 291.966,235.030 296.240 L 235.692 297.642 235.692 311.791 L 235.692 325.940 235.030 327.342 C 233.295 331.022,231.283 332.032,225.484 332.138 L 221.139 332.218 224.300 347.562 C 226.038 356.001,227.495 362.944,227.538 362.990 C 227.580 363.036,235.111 361.009,244.273 358.485 C 265.824 352.550,275.193 349.958,275.265 349.911 C 275.296 349.891,273.932 345.894,272.234 341.030 L 269.145 332.186 257.500 332.186 C 243.028 332.186,242.117 331.963,239.797 327.852 L 239.006 326.450 239.006 311.791 L 239.006 297.132 239.597 296.024 C 241.524 292.414,243.410 291.562,249.850 291.397 L 254.831 291.268 251.783 282.553 L 248.735 273.838 242.723 273.758 C 235.268 273.658,233.813 273.058,231.975 269.324 L 231.358 268.069 231.358 255.194 C 231.358 240.646,231.328 240.886,233.360 238.682 C 234.457 237.492,235.326 236.949,236.966 236.431 C 238.215 236.036,237.202 235.979,235.849 236.368 M271.765 254.939 C 271.765 273.635,271.770 273.805,272.275 273.805 C 272.781 273.805,272.785 273.635,272.785 254.939 C 272.785 236.244,272.781 236.074,272.275 236.074 C 271.770 236.074,271.765 236.244,271.765 254.939 M301.848 243.595 C 301.848 250.945,301.860 251.115,302.358 251.115 C 302.857 251.115,302.868 250.945,302.868 243.595 C 302.868 236.244,302.857 236.074,302.358 236.074 C 301.860 236.074,301.848 236.244,301.848 243.595 M162.651 254.939 C 162.651 265.987,162.659 266.157,163.161 266.157 C 163.663 266.157,163.671 265.987,163.671 254.939 C 163.671 243.892,163.663 243.722,163.161 243.722 C 162.659 243.722,162.651 243.892,162.651 254.939 M203.952 258.764 C 203.952 273.635,203.957 273.805,204.461 273.805 C 204.966 273.805,204.971 273.635,204.971 258.764 C 204.971 243.892,204.966 243.722,204.461 243.722 C 203.957 243.722,203.952 243.892,203.952 258.764 M114.723 249.563 C 114.723 250.029,117.296 252.762,125.494 261.000 C 137.048 272.612,138.350 273.809,139.411 273.797 C 140.043 273.790,140.054 273.771,139.579 273.513 C 139.299 273.360,133.591 267.772,126.896 261.093 C 117.244 251.465,114.723 249.077,114.723 249.563 M239.898 254.302 C 239.898 256.128,240.051 256.252,241.520 255.624 L 242.250 255.313 241.195 253.979 C 239.878 252.312,239.898 252.307,239.898 254.302 M241.109 258.152 L 239.898 258.524 239.898 262.340 L 239.898 266.157 242.979 266.157 C 244.673 266.157,246.021 266.064,245.974 265.951 C 245.927 265.838,245.266 263.945,244.504 261.745 C 242.989 257.371,243.137 257.528,241.109 258.152 M94.837 262.460 C 94.837 265.987,94.861 266.157,95.347 266.157 C 95.834 266.157,95.857 265.987,95.857 262.460 C 95.857 258.934,95.834 258.764,95.347 258.764 C 94.861 258.764,94.837 258.934,94.837 262.460 M301.848 266.284 C 301.848 273.635,301.860 273.805,302.358 273.805 C 302.857 273.805,302.868 273.635,302.868 266.284 C 302.868 258.934,302.857 258.764,302.358 258.764 C 301.860 258.764,301.848 258.934,301.848 266.284 M64.755 269.981 C 64.755 273.635,64.777 273.805,65.264 273.805 C 65.752 273.805,65.774 273.635,65.774 269.981 C 65.774 266.327,65.752 266.157,65.264 266.157 C 64.777 266.157,64.755 266.327,64.755 269.981 M147.610 269.981 C 147.610 273.635,147.633 273.805,148.120 273.805 C 148.607 273.805,148.630 273.635,148.630 269.981 C 148.630 266.327,148.607 266.157,148.120 266.157 C 147.633 266.157,147.610 266.327,147.610 269.981 M153.387 291.791 C 149.051 293.381,148.059 295.728,148.169 304.143 C 148.276 312.371,149.923 315.254,154.816 315.781 L 155.895 315.897 154.552 315.411 C 152.790 314.774,151.043 313.265,150.059 311.531 L 149.267 310.134 149.187 304.232 C 149.072 295.818,150.126 293.407,154.596 291.862 C 155.679 291.487,155.768 291.414,155.131 291.422 C 154.710 291.427,153.926 291.593,153.387 291.791 M198.257 291.791 C 196.033 292.606,193.865 294.898,193.267 297.065 C 193.050 297.853,192.988 302.044,193.042 312.301 L 193.117 326.450 193.706 327.647 C 194.858 329.986,197.358 331.846,199.686 332.097 L 200.765 332.213 199.421 331.727 C 197.659 331.090,195.912 329.581,194.929 327.847 L 194.136 326.450 194.064 312.359 C 194.018 303.353,194.086 297.919,194.252 297.302 C 194.871 295.005,197.100 292.679,199.466 291.862 C 200.548 291.487,200.637 291.414,200.000 291.422 C 199.579 291.427,198.795 291.593,198.257 291.791 M287.995 291.791 C 285.771 292.606,283.604 294.898,283.006 297.065 C 282.789 297.853,282.727 302.044,282.781 312.301 L 282.855 326.450 283.445 327.647 C 284.597 329.986,287.097 331.846,289.424 332.097 L 290.504 332.213 289.160 331.727 C 287.398 331.090,285.651 329.581,284.667 327.847 L 283.875 326.450 283.803 312.359 C 283.757 303.353,283.825 297.919,283.991 297.302 C 284.609 295.005,286.838 292.679,289.204 291.862 C 290.287 291.487,290.376 291.414,289.739 291.422 C 289.318 291.427,288.534 291.593,287.995 291.791 M180.752 303.633 C 180.752 307.542,180.773 307.712,181.262 307.712 C 181.751 307.712,181.772 307.542,181.772 303.633 C 181.772 299.724,181.751 299.554,181.262 299.554 C 180.773 299.554,180.752 299.724,180.752 303.633 M214.415 299.745 C 214.422 299.850,214.795 301.657,215.246 303.760 L 216.065 307.584 217.784 307.660 L 219.503 307.735 219.503 311.803 L 219.503 315.870 218.648 315.870 L 217.793 315.870 218.596 319.885 L 219.398 323.901 223.020 323.971 L 226.641 324.042 226.641 311.798 L 226.641 299.554 220.523 299.554 C 217.157 299.554,214.409 299.640,214.415 299.745 M248.056 311.785 L 248.056 324.028 257.106 324.028 C 264.188 324.028,266.152 323.959,266.136 323.709 C 266.124 323.534,265.521 321.727,264.796 319.694 L 263.477 315.997 259.336 315.927 L 255.194 315.857 255.194 311.785 L 255.194 307.712 257.871 307.712 C 259.344 307.712,260.545 307.683,260.541 307.648 C 260.538 307.613,259.921 305.806,259.170 303.633 L 257.805 299.681 252.931 299.612 L 248.056 299.543 248.056 311.785 M270.491 311.791 C 270.491 323.858,270.498 324.028,271.001 324.028 C 271.503 324.028,271.511 323.858,271.511 311.791 C 271.511 299.724,271.503 299.554,271.001 299.554 C 270.498 299.554,270.491 299.724,270.491 311.791 M315.360 311.791 C 315.360 323.858,315.367 324.028,315.870 324.028 C 316.373 324.028,316.380 323.858,316.380 311.791 C 316.380 299.724,316.373 299.554,315.870 299.554 C 315.367 299.554,315.360 299.724,315.360 311.791 M209.305 311.791 C 209.305 315.700,209.327 315.870,209.815 315.870 C 210.304 315.870,210.325 315.700,210.325 311.791 C 210.325 307.882,210.304 307.712,209.815 307.712 C 209.327 307.712,209.305 307.882,209.305 311.791 M299.044 311.791 C 299.044 315.700,299.065 315.870,299.554 315.870 C 300.042 315.870,300.064 315.700,300.064 311.791 C 300.064 307.882,300.042 307.712,299.554 307.712 C 299.065 307.712,299.044 307.882,299.044 311.791 M180.752 319.949 C 180.752 323.858,180.773 324.028,181.262 324.028 C 181.751 324.028,181.772 323.858,181.772 319.949 C 181.772 316.040,181.751 315.870,181.262 315.870 C 180.773 315.870,180.752 316.040,180.752 319.949 M148.120 328.107 C 148.120 332.016,148.141 332.186,148.630 332.186 C 149.118 332.186,149.140 332.016,149.140 328.107 C 149.140 324.198,149.118 324.028,148.630 324.028 C 148.141 324.028,148.120 324.198,148.120 328.107 M266.667 354.642 C 261.689 356.039,250.964 359.022,242.834 361.272 C 234.703 363.522,228.017 365.397,227.975 365.439 C 227.765 365.649,229.060 368.477,229.823 369.477 C 232.578 373.084,235.759 373.603,242.830 371.597 C 245.214 370.921,247.508 370.277,247.929 370.165 C 250.777 369.407,252.863 368.835,262.970 366.040 C 272.395 363.433,273.001 363.173,274.718 361.004 C 276.342 358.952,277.080 355.342,276.386 352.855 C 276.134 351.954,276.470 351.892,266.667 354.642 " stroke="none" fill="#98d8e1" fill-rule="evenodd"></path><path id="path1" d="M194.466 117.253 C 193.188 117.668,192.296 118.525,191.196 120.389 C 189.725 122.884,186.980 125.558,184.621 126.794 C 182.520 127.895,182.220 128.311,184.253 127.305 C 186.833 126.028,189.877 126.594,191.778 128.704 C 193.549 130.670,192.688 131.903,190.862 130.017 C 189.248 128.350,186.818 127.699,185.281 128.521 C 184.798 128.780,185.021 128.945,187.529 130.195 C 189.060 130.958,190.410 131.678,190.529 131.795 C 190.916 132.175,190.436 133.137,189.926 133.004 C 189.530 132.900,189.481 133.002,189.593 133.693 C 189.683 134.249,189.597 134.610,189.321 134.840 C 188.776 135.291,188.145 135.009,188.145 134.314 C 188.145 132.690,185.540 130.019,183.955 130.019 C 183.887 130.019,184.510 131.071,185.341 132.356 C 186.172 133.641,187.172 135.333,187.563 136.116 C 187.953 136.899,188.298 137.584,188.328 137.638 C 188.496 137.934,190.070 136.948,190.812 136.080 C 191.751 134.983,192.552 134.865,192.686 135.804 C 192.790 136.532,191.272 138.209,189.981 138.791 L 188.995 139.236 189.335 140.547 C 189.525 141.280,189.675 143.184,189.675 144.869 C 189.675 149.295,190.502 150.627,193.904 151.677 C 201.628 154.063,210.474 148.834,213.042 140.364 C 214.836 134.448,215.072 131.683,213.802 131.445 C 212.761 131.249,212.032 130.518,212.267 129.905 C 212.401 129.557,212.608 129.500,213.229 129.638 C 217.488 130.584,220.597 127.147,218.488 123.822 C 216.742 121.069,213.988 120.924,211.887 123.476 C 210.945 124.620,209.964 123.495,210.854 122.291 C 211.432 121.508,211.426 121.491,210.275 120.831 C 209.930 120.633,209.703 120.775,209.141 121.541 C 207.123 124.294,205.780 124.082,202.565 120.505 C 199.774 117.398,197.198 116.364,194.466 117.253 M204.159 124.086 C 203.908 124.388,203.939 124.510,204.317 124.722 C 206.892 126.163,208.940 130.697,207.442 131.641 C 206.854 132.011,206.246 131.286,206.246 130.215 C 206.246 128.735,204.405 126.280,202.948 125.818 C 202.369 125.634,201.487 126.166,200.302 127.414 L 199.585 128.169 200.114 129.030 C 201.268 130.908,201.380 132.932,200.321 132.775 C 199.935 132.717,199.676 132.333,199.350 131.330 C 198.656 129.193,198.400 129.066,197.074 130.200 C 196.374 130.800,195.921 131.038,195.855 130.842 C 195.586 130.034,195.253 130.615,195.413 131.612 C 195.802 134.030,197.721 135.992,200.000 136.305 C 202.247 136.613,202.303 138.062,200.060 137.871 C 191.565 137.150,192.112 123.925,200.637 123.902 C 201.746 123.899,202.200 123.767,202.804 123.272 L 203.569 122.645 204.019 123.178 C 204.379 123.605,204.407 123.786,204.159 124.086 M199.027 125.800 C 197.571 126.319,196.275 127.536,195.814 128.819 L 195.558 129.530 196.249 129.020 C 197.118 128.378,200.299 125.452,200.127 125.452 C 200.057 125.453,199.562 125.609,199.027 125.800 M209.129 138.269 C 210.248 141.184,204.463 148.220,201.790 147.194 C 201.096 146.928,201.316 145.856,202.103 145.667 C 204.942 144.984,207.521 141.909,207.521 139.206 C 207.521 137.980,208.745 137.268,209.129 138.269 M193.699 138.687 C 193.739 139.038,193.489 140.151,193.144 141.162 C 192.418 143.289,192.537 143.451,194.594 143.143 C 195.787 142.964,196.446 143.371,196.163 144.111 C 195.801 145.052,192.498 145.102,191.575 144.180 C 190.795 143.399,190.797 143.173,191.610 140.627 C 191.974 139.490,192.317 138.408,192.374 138.223 C 192.560 137.617,193.619 137.988,193.699 138.687 M217.741 139.222 C 214.466 139.502,214.612 139.284,215.924 141.940 C 220.457 151.116,219.243 158.452,212.656 161.695 C 208.110 163.933,205.565 162.372,205.211 157.128 C 204.993 153.898,204.764 152.454,204.469 152.454 C 204.369 152.454,203.625 152.681,202.818 152.959 C 198.015 154.612,192.666 153.864,189.846 151.146 L 188.552 149.898 187.978 150.602 C 185.092 154.142,184.833 156.103,185.501 169.368 C 185.811 175.530,183.916 179.388,179.534 181.517 C 177.904 182.309,177.699 180.994,181.684 195.284 C 182.016 196.475,182.593 198.627,182.965 200.064 L 183.641 202.677 189.271 202.678 C 194.439 202.679,194.969 202.720,195.732 203.185 C 197.312 204.148,197.991 206.147,197.329 207.887 L 197.081 208.540 198.940 208.540 C 201.888 208.540,212.212 206.335,210.835 205.999 C 210.381 205.888,210.174 205.644,210.117 205.152 L 210.036 204.461 213.121 204.461 C 216.630 204.461,219.360 203.597,224.677 200.803 L 227.175 199.490 227.025 198.598 C 226.306 194.311,224.504 192.408,220.843 192.068 L 219.091 191.905 217.707 193.033 C 215.052 195.197,214.103 196.996,215.125 197.921 C 216.109 198.811,217.598 198.373,218.490 196.930 C 219.121 195.908,220.083 195.777,220.215 196.695 C 220.397 197.971,217.623 200.284,216.165 200.070 C 215.551 199.979,215.385 200.064,215.269 200.529 C 214.915 201.938,212.474 202.908,211.114 202.180 C 208.908 200.999,208.986 194.668,211.239 191.990 L 211.858 191.255 210.645 190.344 C 209.978 189.843,208.859 188.972,208.158 188.407 C 205.927 186.609,203.984 185.942,202.932 186.612 C 202.327 186.998,203.353 188.642,206.037 191.587 C 209.191 195.047,209.720 196.244,208.878 198.018 C 208.318 199.198,206.881 199.858,204.844 199.871 C 202.564 199.885,202.040 200.239,202.040 201.765 C 202.040 203.332,202.640 203.839,204.971 204.240 C 207.990 204.760,208.092 206.168,205.094 205.927 C 198.863 205.427,198.276 198.343,204.466 198.343 C 208.243 198.343,208.600 196.750,205.564 193.435 C 204.747 192.544,203.627 191.314,203.074 190.703 C 197.808 184.879,203.482 182.455,209.943 187.769 C 213.067 190.340,212.859 190.272,218.101 190.442 C 222.149 190.574,222.847 190.662,224.022 191.182 C 225.288 191.743,227.406 193.679,227.406 194.277 C 227.406 194.949,234.941 193.535,237.349 192.411 C 242.138 190.175,242.845 186.225,239.505 180.364 C 238.283 178.220,238.181 177.611,239.022 177.490 C 240.472 177.282,243.212 183.150,243.212 186.465 L 243.212 188.006 245.280 185.972 C 250.077 181.254,258.254 170.568,258.254 169.017 C 258.254 167.597,248.767 155.583,242.644 149.248 C 234.806 141.139,227.893 138.356,217.741 139.222 M213.681 143.596 C 212.426 146.443,209.917 149.298,207.306 150.851 C 206.264 151.471,206.207 151.564,206.334 152.428 C 206.408 152.933,206.614 154.811,206.792 156.601 C 207.238 161.103,208.269 161.875,211.804 160.354 C 217.307 157.987,218.519 151.610,214.929 143.913 L 214.215 142.384 213.681 143.596 M233.424 170.086 C 235.671 172.279,236.055 172.895,235.554 173.499 C 235.064 174.089,234.914 173.993,232.501 171.529 C 230.162 169.141,229.981 168.846,230.516 168.311 C 231.020 167.807,231.205 167.919,233.424 170.086 M198.486 173.678 C 200.210 179.203,198.028 189.267,195.194 188.860 C 194.374 188.743,194.397 188.013,195.255 186.941 C 197.470 184.173,198.107 179.479,196.946 174.483 C 196.365 171.985,197.734 171.269,198.486 173.678 M121.111 173.642 C 125.619 182.065,139.860 194.647,151.616 200.593 C 165.304 207.516,182.792 211.015,182.792 206.831 C 182.792 206.201,181.878 202.545,180.128 196.176 C 179.227 192.896,178.240 189.236,176.068 181.122 C 174.538 175.407,174.234 174.674,173.044 173.825 L 172.212 173.231 158.126 173.161 C 150.379 173.123,144.041 173.171,144.041 173.269 C 144.041 173.367,144.886 174.226,145.919 175.178 C 148.003 177.098,148.630 178.147,148.630 179.716 C 148.630 180.296,148.805 181.038,149.020 181.366 C 149.235 181.694,149.481 182.557,149.567 183.284 L 149.724 184.605 147.711 184.564 C 146.604 184.541,145.001 184.604,144.148 184.704 C 142.820 184.860,142.437 184.804,141.471 184.312 C 140.211 183.671,133.652 177.222,131.691 174.697 L 130.454 173.104 125.639 173.104 L 120.823 173.104 121.111 173.642 M150.414 185.609 C 150.414 187.433,152.790 189.796,155.003 190.173 L 155.895 190.325 155.895 192.146 C 155.895 197.240,149.544 199.266,145.507 195.459 C 144.065 194.100,145.018 192.961,146.505 194.267 C 149.546 196.937,153.854 196.065,154.405 192.668 C 154.537 191.856,154.484 191.761,153.756 191.507 C 153.320 191.355,152.964 191.281,152.964 191.343 C 152.964 191.956,149.727 188.524,149.367 187.528 C 149.078 186.728,148.932 186.616,148.181 186.616 C 147.592 186.616,147.382 186.709,147.509 186.914 C 147.635 187.118,147.552 187.158,147.245 187.040 C 146.932 186.920,146.535 187.130,145.927 187.737 C 145.320 188.345,145.110 188.742,145.230 189.055 C 145.344 189.352,145.306 189.444,145.117 189.328 C 144.925 189.209,144.808 189.586,144.755 190.497 C 144.684 191.741,144.630 191.842,144.041 191.842 C 143.007 191.842,143.091 188.887,144.168 187.358 C 145.585 185.347,150.414 183.994,150.414 185.609 M148.747 188.209 C 149.443 189.873,151.433 191.658,153.046 192.063 C 153.422 192.157,153.728 192.348,153.728 192.488 C 153.728 192.923,152.596 194.512,152.284 194.516 C 152.120 194.517,151.944 194.647,151.892 194.803 C 151.751 195.224,149.386 195.140,148.521 194.684 C 148.110 194.467,147.681 194.347,147.567 194.418 C 147.454 194.488,147.422 194.385,147.497 194.190 C 147.587 193.957,147.215 193.620,146.417 193.209 C 144.593 192.270,145.074 188.831,147.173 187.796 C 148.288 187.246,148.352 187.263,148.747 188.209 M212.572 192.840 C 210.608 195.552,210.538 200.892,212.467 200.892 C 213.660 200.892,214.264 199.490,213.504 198.485 C 212.546 197.220,213.237 195.147,215.348 192.951 L 216.243 192.020 214.769 191.931 C 213.310 191.843,213.287 191.852,212.572 192.840 M230.771 195.741 C 228.850 196.021,228.179 196.211,228.270 196.450 C 228.339 196.630,228.472 197.183,228.565 197.680 L 228.735 198.583 229.531 198.171 C 231.192 197.312,234.198 195.201,233.588 195.321 C 233.483 195.342,232.215 195.531,230.771 195.741 M184.388 205.720 C 184.558 206.576,184.550 207.228,184.365 207.759 L 184.093 208.540 189.325 208.540 L 194.558 208.540 195.303 207.795 C 196.143 206.955,196.211 206.536,195.675 205.499 C 195.147 204.478,195.044 204.461,189.308 204.461 L 184.140 204.461 184.388 205.720 M239.729 254.430 C 239.729 255.481,239.774 255.911,239.829 255.386 C 239.884 254.860,239.884 253.999,239.829 253.474 C 239.774 252.948,239.729 253.378,239.729 254.430 M213.486 259.656 C 213.487 261.759,213.526 262.586,213.574 261.492 C 213.622 260.399,213.622 258.679,213.573 257.668 C 213.525 256.658,213.486 257.553,213.486 259.656 M239.746 262.333 C 239.746 264.506,239.785 265.395,239.833 264.308 C 239.880 263.222,239.880 261.444,239.833 260.357 C 239.785 259.270,239.746 260.159,239.746 262.333 M213.488 269.853 C 213.488 272.097,213.527 272.981,213.574 271.817 C 213.622 270.654,213.621 268.818,213.574 267.738 C 213.526 266.658,213.487 267.610,213.488 269.853 M235.683 311.791 C 235.683 319.293,235.715 322.361,235.755 318.611 C 235.795 314.860,235.795 308.722,235.755 304.971 C 235.715 301.221,235.683 304.289,235.683 311.791 M247.919 311.791 C 247.919 318.591,247.952 321.373,247.992 317.973 C 248.032 314.573,248.032 309.009,247.992 305.609 C 247.952 302.208,247.919 304.990,247.919 311.791 M219.352 311.791 C 219.352 314.105,219.390 315.051,219.438 313.894 C 219.485 312.737,219.485 310.844,219.438 309.688 C 219.390 308.531,219.352 309.477,219.352 311.791 " stroke="none" fill="#e8adbd" fill-rule="evenodd"></path><path id="path2" d="M185.214 41.451 C 148.865 43.526,119.228 64.914,106.819 98.027 C 85.855 153.966,126.696 214.112,186.488 215.355 C 252.211 216.721,295.463 147.746,265.751 88.953 C 250.659 59.089,217.620 39.602,185.214 41.451 M196.844 48.074 C 252.521 54.146,285.600 114.110,260.791 163.991 C 259.956 165.670,259.273 167.143,259.273 167.266 C 259.273 167.745,255.885 173.161,253.778 176.050 C 224.375 216.356,166.248 220.886,131.024 185.615 C 126.923 181.509,118.838 171.319,119.681 171.319 C 119.745 171.319,119.281 170.448,118.652 169.383 C 103.351 143.502,103.979 110.167,120.243 84.950 C 134.113 63.446,155.852 50.389,182.027 47.842 C 184.750 47.577,193.554 47.715,196.844 48.074 M226.386 234.527 C 223.976 235.926,223.848 235.936,206.756 236.078 L 190.822 236.211 209.114 236.270 L 227.406 236.329 227.406 240.025 L 227.406 243.722 219.885 243.722 L 212.365 243.722 212.365 258.764 C 212.365 273.571,212.372 273.805,212.868 273.805 C 213.345 273.805,213.375 273.594,213.442 269.796 L 213.512 265.787 221.925 263.464 L 230.338 261.140 230.416 259.930 C 230.486 258.862,230.441 258.736,230.034 258.861 C 228.218 259.416,213.856 263.352,213.647 263.352 C 213.129 263.352,213.309 256.039,213.830 255.897 C 214.076 255.830,217.919 254.767,222.371 253.534 L 230.465 251.291 230.463 248.080 C 230.461 245.198,230.370 244.543,229.573 241.683 C 229.085 239.930,228.684 237.951,228.683 237.285 C 228.681 236.396,228.582 236.074,228.310 236.074 C 228.088 236.074,227.872 235.716,227.772 235.182 C 227.600 234.270,227.176 234.069,226.386 234.527 M88.400 236.265 L 103.505 236.333 103.505 240.028 C 103.505 243.552,103.529 243.722,104.015 243.722 C 104.503 243.722,104.525 243.552,104.525 239.898 L 104.525 236.074 88.910 236.136 L 73.295 236.197 88.400 236.265 M112.032 236.455 C 112.813 236.733,115.748 239.511,125.149 248.872 C 131.810 255.504,137.065 260.692,136.826 260.401 C 136.588 260.109,136.393 259.648,136.393 259.377 C 136.393 258.747,114.374 236.719,113.368 236.343 C 112.973 236.195,112.285 236.079,111.838 236.085 L 111.026 236.096 112.032 236.455 M141.428 236.264 L 144.806 236.344 144.806 253.464 C 144.806 273.002,144.896 272.158,142.689 273.298 L 141.619 273.851 142.727 273.721 C 143.910 273.583,144.855 272.891,145.467 271.714 C 145.765 271.143,145.825 268.062,145.825 253.550 L 145.825 236.074 141.938 236.130 L 138.050 236.185 141.428 236.264 M167.686 236.265 L 186.106 236.332 186.106 240.027 C 186.106 243.552,186.129 243.722,186.616 243.722 C 187.103 243.722,187.126 243.552,187.126 239.898 L 187.126 236.074 168.196 236.136 L 149.267 236.198 167.686 236.265 M253.856 236.265 L 268.961 236.333 268.961 240.028 C 268.961 243.552,268.985 243.722,269.471 243.722 C 269.958 243.722,269.981 243.552,269.981 239.898 L 269.981 236.074 254.366 236.136 L 238.751 236.197 253.856 236.265 M276.801 236.264 L 280.178 236.344 280.178 243.857 L 280.178 251.370 291.460 251.309 L 302.741 251.249 291.969 251.179 L 281.198 251.110 281.198 243.592 L 281.198 236.074 277.310 236.130 L 273.423 236.185 276.801 236.264 M306.883 236.264 L 310.261 236.344 310.261 255.074 C 310.261 273.635,310.266 273.805,310.771 273.805 C 311.276 273.805,311.281 273.635,311.281 254.939 L 311.281 236.074 307.393 236.130 L 303.505 236.185 306.883 236.264 M73.423 247.539 L 73.423 251.356 85.723 251.427 L 98.024 251.498 99.171 252.093 C 102.737 253.944,103.378 255.523,103.378 262.460 C 103.378 269.847,102.011 272.513,97.704 273.529 L 96.750 273.754 97.769 273.774 C 99.893 273.815,102.415 272.045,103.719 269.598 C 104.396 268.327,104.398 268.311,104.398 262.588 L 104.398 256.851 103.681 255.392 C 101.680 251.317,100.862 251.115,86.287 251.115 L 74.442 251.115 74.442 247.419 C 74.442 243.892,74.419 243.722,73.932 243.722 C 73.445 243.722,73.423 243.892,73.423 247.539 M171.064 255.067 L 171.064 266.412 178.585 266.412 L 186.106 266.412 186.106 270.108 C 186.106 273.635,186.129 273.805,186.616 273.805 C 187.103 273.805,187.126 273.635,187.126 269.981 L 187.126 266.157 179.605 266.157 L 172.084 266.157 172.084 254.939 C 172.084 243.892,172.076 243.722,171.574 243.722 C 171.072 243.722,171.064 243.892,171.064 255.067 M238.878 255.067 L 238.878 266.412 253.920 266.412 L 268.961 266.412 268.961 270.108 C 268.961 273.635,268.985 273.805,269.471 273.805 C 269.958 273.805,269.981 273.635,269.981 269.981 L 269.981 266.157 254.812 266.157 L 239.643 266.157 239.643 262.361 L 239.643 258.565 241.364 258.112 C 243.443 257.565,243.771 257.339,243.671 256.517 C 243.545 255.473,242.928 255.281,241.196 255.745 L 239.672 256.153 239.825 249.938 L 239.978 243.722 239.428 243.722 L 238.878 243.722 238.878 255.067 M114.723 261.911 C 114.723 273.635,114.730 273.805,115.233 273.805 C 115.735 273.805,115.743 273.635,115.743 262.372 C 115.743 251.263,115.728 250.926,115.233 250.478 C 114.723 250.017,114.723 250.033,114.723 261.911 M280.178 266.284 C 280.178 273.635,280.190 273.805,280.688 273.805 C 281.187 273.805,281.198 273.635,281.198 266.284 C 281.198 258.934,281.187 258.764,280.688 258.764 C 280.190 258.764,280.178 258.934,280.178 266.284 M73.996 266.348 C 78.027 266.387,84.624 266.387,88.655 266.348 C 92.686 266.308,89.388 266.276,81.326 266.276 C 73.263 266.276,69.965 266.308,73.996 266.348 M152.915 266.348 C 154.922 266.391,158.134 266.391,160.054 266.347 C 161.973 266.304,160.331 266.269,156.405 266.269 C 152.479 266.269,150.909 266.304,152.915 266.348 M154.596 291.862 C 150.126 293.407,149.072 295.818,149.187 304.232 L 149.267 310.134 150.058 311.536 C 152.411 315.705,153.129 315.870,168.944 315.870 L 181.772 315.870 181.772 319.949 L 181.772 324.028 165.456 324.028 L 149.140 324.028 149.140 328.107 L 149.140 332.186 166.963 332.186 L 184.787 332.186 186.387 331.358 C 190.802 329.072,190.950 328.439,190.950 311.791 C 190.950 295.143,190.802 294.510,186.387 292.224 L 184.787 291.396 170.341 291.404 C 157.222 291.412,155.776 291.454,154.596 291.862 M199.466 291.857 C 197.095 292.685,194.870 295.008,194.252 297.302 C 194.086 297.919,194.018 303.353,194.064 312.359 L 194.136 326.450 194.928 327.852 C 197.329 332.107,197.860 332.219,215.199 332.131 L 229.318 332.059 230.768 331.379 C 232.634 330.504,234.393 328.668,235.052 326.907 C 235.845 324.787,235.845 298.795,235.052 296.675 C 234.393 294.914,232.634 293.078,230.768 292.203 L 229.318 291.523 215.041 291.464 C 201.922 291.409,200.659 291.441,199.466 291.857 M244.335 291.862 C 241.969 292.679,239.740 295.005,239.122 297.302 C 238.956 297.919,238.888 303.353,238.934 312.359 L 239.006 326.450 239.797 327.852 C 242.186 332.085,242.661 332.186,260.190 332.186 L 274.525 332.186 276.126 331.358 C 280.541 329.072,280.688 328.439,280.688 311.791 C 280.688 295.143,280.541 294.510,276.126 292.224 L 274.525 291.396 260.080 291.404 C 246.961 291.412,245.515 291.454,244.335 291.862 M289.204 291.862 C 286.838 292.679,284.609 295.005,283.991 297.302 C 283.825 297.919,283.757 303.353,283.803 312.359 L 283.875 326.450 284.666 327.852 C 287.055 332.085,287.530 332.186,305.059 332.186 L 319.395 332.186 320.995 331.358 C 325.410 329.072,325.558 328.439,325.558 311.791 C 325.558 295.143,325.410 294.510,320.995 292.224 L 319.395 291.396 304.949 291.404 C 291.830 291.412,290.384 291.454,289.204 291.862 M181.772 303.633 L 181.772 307.712 170.045 307.712 L 158.317 307.712 158.317 303.633 L 158.317 299.554 170.045 299.554 L 181.772 299.554 181.772 303.633 M226.641 311.791 L 226.641 324.028 214.914 324.028 L 203.187 324.028 203.187 311.791 L 203.187 299.554 214.914 299.554 L 226.641 299.554 226.641 311.791 M271.511 311.791 L 271.511 324.028 259.656 324.028 L 247.801 324.028 247.801 311.791 L 247.801 299.554 259.656 299.554 L 271.511 299.554 271.511 311.791 M316.380 311.791 L 316.380 324.028 304.653 324.028 L 292.925 324.028 292.925 311.791 L 292.925 299.554 304.653 299.554 L 316.380 299.554 316.380 311.791 M210.325 311.791 L 210.325 315.870 214.786 315.870 L 219.248 315.870 219.248 311.791 L 219.248 307.712 214.786 307.712 L 210.325 307.712 210.325 311.791 M255.194 311.791 L 255.194 315.870 259.783 315.870 L 264.372 315.870 264.372 311.791 L 264.372 307.712 259.783 307.712 L 255.194 307.712 255.194 311.791 M300.064 311.791 L 300.064 315.870 304.653 315.870 L 309.242 315.870 309.242 311.791 L 309.242 307.712 304.653 307.712 L 300.064 307.712 300.064 311.791 M268.069 351.884 C 264.563 352.873,253.952 355.817,244.487 358.425 L 227.279 363.167 227.279 364.029 C 227.279 365.740,225.112 366.252,265.339 355.026 C 277.046 351.759,276.354 351.998,276.354 351.215 C 276.354 349.640,275.885 349.678,268.069 351.884 " stroke="none" fill="#622fb0" fill-rule="evenodd"></path><path id="path3" d="M190.265 3.819 C 158.090 5.562,127.451 14.820,100.574 30.918 C 12.709 83.547,-19.825 193.971,25.720 284.976 C 62.036 357.540,138.924 399.997,219.223 391.826 C 331.747 380.376,410.638 276.442,391.576 164.760 C 375.155 68.554,287.588 -1.453,190.265 3.819 M207.620 16.060 C 296.765 19.778,370.508 88.317,380.978 177.183 C 381.864 184.703,382.023 187.936,382.019 198.343 C 381.991 276.656,332.617 345.696,258.580 370.948 C 154.288 406.520,41.657 341.220,20.795 233.089 C -1.552 117.265,89.798 11.147,207.620 16.060 M199.745 97.826 C 199.465 97.895,199.097 98.064,198.928 98.201 C 198.759 98.338,198.495 98.373,198.343 98.279 C 198.190 98.185,197.781 98.294,197.432 98.523 C 197.084 98.751,196.691 98.871,196.559 98.789 C 196.426 98.708,195.967 98.822,195.539 99.044 C 195.110 99.266,194.630 99.367,194.472 99.270 C 194.285 99.154,194.257 99.209,194.392 99.427 C 194.547 99.677,194.457 99.725,194.035 99.614 C 193.725 99.533,192.960 99.641,192.336 99.854 C 191.579 100.112,190.757 100.189,189.865 100.087 C 187.951 99.868,187.153 99.755,186.934 99.673 C 186.829 99.634,186.170 99.568,185.468 99.527 C 180.150 99.217,179.356 99.210,179.048 99.466 C 178.865 99.617,178.471 99.678,178.172 99.599 C 177.873 99.521,177.356 99.636,177.023 99.853 C 176.690 100.071,176.418 100.175,176.418 100.084 C 176.418 99.993,176.160 100.062,175.844 100.237 C 175.529 100.412,175.181 100.560,175.070 100.565 C 174.960 100.570,174.761 100.746,174.628 100.956 C 174.495 101.166,174.385 101.248,174.382 101.137 C 174.379 100.938,174.039 101.174,173.086 102.040 C 172.815 102.285,172.594 102.406,172.594 102.308 C 172.594 102.211,172.192 102.520,171.702 102.996 C 171.211 103.471,170.809 103.953,170.809 104.065 C 170.809 104.178,170.609 104.481,170.363 104.738 C 169.745 105.387,169.202 106.214,169.225 106.474 C 169.235 106.594,169.071 106.883,168.860 107.116 C 168.649 107.349,168.451 107.693,168.420 107.881 C 168.389 108.068,168.226 108.472,168.057 108.777 C 167.889 109.082,167.818 109.504,167.898 109.713 C 167.979 109.923,167.909 110.347,167.743 110.656 C 167.387 111.322,167.209 116.203,167.534 116.404 C 167.657 116.480,167.689 116.654,167.605 116.791 C 167.520 116.928,167.589 117.205,167.757 117.408 C 167.925 117.610,167.997 117.945,167.917 118.153 C 167.838 118.361,167.884 118.599,168.020 118.684 C 168.157 118.768,168.202 118.944,168.122 119.074 C 168.041 119.205,168.109 119.312,168.272 119.312 C 168.436 119.312,168.506 119.476,168.429 119.678 C 168.352 119.879,168.538 120.361,168.843 120.749 C 169.171 121.166,169.243 121.373,169.020 121.256 C 168.812 121.147,168.841 121.222,169.085 121.421 C 169.328 121.621,169.452 121.859,169.361 121.950 C 169.270 122.041,169.335 122.116,169.507 122.116 C 169.679 122.116,169.757 122.218,169.680 122.342 C 169.488 122.653,172.432 125.804,173.784 126.734 C 174.391 127.152,174.888 127.414,174.888 127.315 C 174.888 127.216,175.099 127.326,175.355 127.558 C 175.612 127.791,175.899 127.904,175.993 127.810 C 176.086 127.716,176.163 127.774,176.163 127.937 C 176.163 128.101,176.249 128.211,176.354 128.182 C 176.460 128.154,176.981 128.279,177.514 128.461 C 178.046 128.643,179.039 128.753,179.721 128.704 C 180.414 128.655,180.896 128.718,180.817 128.847 C 180.738 128.973,180.867 129.218,181.103 129.390 C 181.475 129.662,181.481 129.723,181.146 129.852 C 180.934 129.933,180.824 130.165,180.901 130.366 C 180.979 130.568,180.917 130.809,180.765 130.903 C 180.613 130.997,180.555 131.181,180.635 131.311 C 180.716 131.442,180.681 131.549,180.558 131.549 C 180.376 131.549,180.331 134.321,180.510 134.544 C 180.538 134.579,180.577 134.694,180.597 134.799 C 180.616 134.904,180.734 135.152,180.859 135.349 C 181.020 135.602,180.994 135.650,180.773 135.513 C 180.543 135.371,180.549 135.463,180.795 135.856 C 180.979 136.151,181.224 136.393,181.338 136.393 C 181.453 136.393,181.488 136.487,181.417 136.603 C 181.270 136.841,182.867 138.432,183.252 138.432 C 183.390 138.432,183.571 138.611,183.655 138.831 C 183.739 139.050,183.910 139.166,184.036 139.088 C 184.161 139.011,184.407 139.121,184.583 139.333 C 184.759 139.545,185.106 139.654,185.355 139.575 C 186.437 139.231,187.993 140.452,187.496 141.256 C 187.416 141.385,187.428 141.617,187.522 141.770 C 187.897 142.376,187.626 147.963,187.199 148.434 C 186.975 148.682,186.887 148.885,187.004 148.885 C 187.122 148.885,186.832 149.229,186.361 149.649 C 185.890 150.070,185.600 150.414,185.717 150.414 C 185.834 150.414,185.722 150.644,185.468 150.924 C 185.215 151.205,185.087 151.434,185.184 151.434 C 185.281 151.434,185.131 151.681,184.850 151.983 C 184.569 152.284,184.400 152.629,184.474 152.749 C 184.548 152.869,184.434 153.142,184.221 153.355 C 184.008 153.569,183.905 153.931,183.993 154.160 C 184.083 154.396,184.047 154.512,183.909 154.426 C 183.775 154.344,183.646 154.468,183.622 154.703 C 183.378 157.071,183.312 158.285,183.310 160.357 C 183.309 163.111,183.458 167.368,183.556 167.368 C 183.749 167.368,183.706 173.394,183.512 173.514 C 183.385 173.592,183.351 173.877,183.436 174.145 C 183.530 174.443,183.375 174.938,183.036 175.413 C 182.731 175.842,182.550 176.262,182.635 176.346 C 182.719 176.431,182.552 176.665,182.264 176.867 C 181.976 177.069,181.632 177.517,181.501 177.861 C 181.370 178.206,181.156 178.422,181.025 178.341 C 180.894 178.260,180.625 178.425,180.428 178.707 C 180.231 178.989,179.993 179.143,179.901 179.051 C 179.808 178.958,179.732 179.070,179.732 179.299 C 179.732 179.548,179.591 179.662,179.383 179.582 C 179.191 179.508,178.869 179.613,178.667 179.814 C 178.355 180.126,178.230 180.128,177.821 179.829 C 177.557 179.635,177.434 179.477,177.548 179.477 C 177.662 179.477,177.614 179.307,177.441 179.098 C 177.267 178.890,177.199 178.529,177.288 178.297 C 177.377 178.066,177.269 177.600,177.048 177.263 C 176.827 176.926,176.711 176.445,176.791 176.195 C 176.874 175.931,176.719 175.490,176.422 175.147 C 175.834 174.470,175.767 174.261,176.227 174.545 C 176.609 174.781,175.076 172.812,174.516 172.347 C 174.300 172.168,174.124 172.098,174.124 172.190 C 174.124 172.283,173.870 172.122,173.559 171.833 C 173.248 171.544,172.851 171.362,172.675 171.429 C 172.499 171.497,172.288 171.442,172.205 171.308 C 172.031 171.027,142.001 170.961,142.001 171.242 C 142.001 171.339,142.310 171.741,142.686 172.134 L 143.371 172.849 157.354 172.849 C 172.532 172.849,172.265 172.826,173.707 174.279 C 174.680 175.259,174.361 174.228,178.974 191.318 C 183.876 209.476,183.782 208.301,180.370 208.755 C 178.864 208.956,178.887 208.962,181.876 209.165 C 185.587 209.417,196.604 209.176,197.833 208.816 L 198.725 208.555 197.897 208.631 C 196.948 208.718,196.976 208.780,197.363 207.487 C 197.769 206.134,197.324 204.739,196.164 203.720 L 195.266 202.932 189.421 202.932 L 183.576 202.932 183.287 201.848 C 183.128 201.252,182.482 198.872,181.852 196.558 C 181.221 194.245,180.431 191.319,180.097 190.057 C 179.762 188.795,179.156 186.537,178.752 185.040 C 178.025 182.351,178.042 181.772,178.851 181.772 C 179.437 181.772,182.693 179.264,183.358 178.301 C 185.405 175.337,185.825 172.706,185.244 166.470 C 184.433 157.764,185.101 153.758,187.893 150.577 L 188.736 149.617 189.212 150.368 C 191.094 153.341,197.800 154.607,202.677 152.910 C 203.728 152.544,204.624 152.279,204.668 152.321 C 204.859 152.509,205.479 157.044,205.480 158.262 C 205.486 166.188,217.023 162.094,218.494 153.644 C 218.984 150.834,218.133 147.011,216.005 142.461 C 214.527 139.298,214.530 139.292,217.635 139.060 C 231.897 137.990,242.343 145.229,256.584 166.051 L 258.473 168.813 258.873 168.039 C 259.432 166.959,259.378 166.550,258.572 165.784 C 258.187 165.417,258.043 165.202,258.254 165.306 C 258.464 165.410,258.349 165.243,257.999 164.937 C 257.648 164.630,257.375 164.305,257.393 164.216 C 257.461 163.863,257.168 163.427,256.952 163.560 C 256.827 163.638,256.724 163.522,256.724 163.304 C 256.724 163.085,256.609 162.906,256.469 162.906 C 256.329 162.906,256.243 162.800,256.278 162.669 C 256.313 162.539,256.112 162.244,255.832 162.013 C 255.551 161.782,255.494 161.668,255.704 161.759 C 255.954 161.867,255.932 161.798,255.641 161.559 C 255.395 161.358,255.194 161.091,255.193 160.966 C 255.193 160.841,254.803 160.316,254.328 159.799 C 253.853 159.281,253.513 158.809,253.573 158.749 C 253.633 158.689,253.273 158.281,252.772 157.841 C 252.272 157.402,251.952 157.039,252.063 157.035 C 252.173 157.030,252.033 156.853,251.753 156.641 C 251.472 156.429,251.243 156.158,251.243 156.038 C 251.243 155.919,250.813 155.415,250.287 154.919 C 249.761 154.423,249.331 153.898,249.331 153.751 C 249.331 153.605,249.045 153.298,248.696 153.069 C 248.346 152.840,248.119 152.558,248.191 152.442 C 248.263 152.326,247.860 151.860,247.296 151.407 C 246.733 150.954,246.272 150.456,246.272 150.301 C 246.272 150.009,245.361 149.119,245.210 149.262 C 245.163 149.307,244.976 149.183,244.796 148.986 C 244.615 148.790,244.554 148.630,244.661 148.630 C 244.768 148.630,244.059 147.827,243.085 146.845 C 242.111 145.864,241.217 145.061,241.098 145.061 C 240.763 145.061,240.158 144.376,240.335 144.199 C 240.422 144.112,240.364 144.041,240.205 144.041 C 240.047 144.041,239.684 143.790,239.398 143.483 C 239.112 143.176,238.878 143.026,238.878 143.149 C 238.878 143.273,238.710 143.151,238.504 142.879 C 238.298 142.606,238.126 142.495,238.122 142.632 C 238.117 142.768,237.934 142.623,237.714 142.309 C 237.494 141.995,237.219 141.796,237.103 141.868 C 236.987 141.940,236.824 141.820,236.740 141.601 C 236.656 141.383,236.487 141.266,236.365 141.342 C 236.242 141.417,235.939 141.255,235.692 140.982 C 235.444 140.708,235.155 140.537,235.049 140.602 C 234.943 140.668,234.716 140.551,234.544 140.344 C 234.372 140.137,234.143 140.022,234.034 140.089 C 233.926 140.156,233.701 140.047,233.535 139.847 C 233.368 139.646,233.087 139.538,232.909 139.606 C 232.732 139.674,232.440 139.554,232.262 139.339 C 232.083 139.124,231.835 139.010,231.711 139.087 C 231.587 139.164,231.485 139.099,231.485 138.942 C 231.485 138.785,231.374 138.726,231.237 138.810 C 231.101 138.894,230.716 138.784,230.381 138.564 C 230.028 138.333,229.579 138.240,229.312 138.342 C 228.971 138.473,228.906 138.432,229.061 138.181 C 229.198 137.959,229.171 137.904,228.980 138.022 C 228.821 138.120,228.449 138.071,228.152 137.912 C 227.856 137.754,227.022 137.577,226.299 137.520 C 225.576 137.463,224.410 137.340,223.709 137.245 C 222.510 137.083,220.414 137.043,217.667 137.129 C 217.007 137.150,216.398 137.280,216.313 137.417 C 215.982 137.954,215.700 137.644,215.942 137.009 C 216.080 136.646,216.127 136.245,216.048 136.116 C 215.969 135.988,216.012 135.883,216.145 135.883 C 216.278 135.883,216.403 135.395,216.422 134.799 C 216.500 132.463,216.591 131.858,216.930 131.450 C 217.123 131.217,217.342 131.088,217.417 131.163 C 217.492 131.237,217.820 131.048,218.146 130.742 C 218.471 130.436,218.738 130.285,218.738 130.407 C 218.738 130.528,219.007 130.263,219.336 129.817 C 219.665 129.371,220.010 129.081,220.101 129.173 C 220.193 129.264,220.268 129.148,220.268 128.914 C 220.268 128.681,220.389 128.489,220.538 128.489 C 220.686 128.489,220.745 128.388,220.668 128.263 C 220.591 128.139,220.670 127.919,220.844 127.775 C 221.284 127.410,221.210 124.423,220.754 124.141 C 220.565 124.024,220.486 123.852,220.578 123.760 C 220.744 123.594,220.573 123.321,219.694 122.353 C 219.449 122.082,219.323 121.861,219.415 121.861 C 219.507 121.861,219.377 121.634,219.126 121.357 C 218.875 121.080,218.583 120.907,218.476 120.973 C 218.369 121.039,218.210 120.905,218.121 120.676 C 218.033 120.446,217.893 120.327,217.809 120.410 C 217.371 120.848,216.675 119.108,216.687 117.603 C 216.689 117.295,216.586 116.978,216.459 116.899 C 216.331 116.820,216.270 116.413,216.323 115.994 C 216.377 115.567,216.301 115.233,216.149 115.233 C 216.001 115.233,215.949 115.050,216.035 114.827 C 216.120 114.604,216.107 114.289,216.005 114.126 C 215.643 113.546,215.582 113.038,215.632 110.978 C 215.661 109.775,215.571 108.823,215.421 108.730 C 215.278 108.641,215.230 108.457,215.314 108.320 C 215.399 108.184,215.330 107.906,215.162 107.704 C 214.994 107.502,214.921 107.170,214.999 106.967 C 215.077 106.763,214.891 106.280,214.586 105.892 C 214.281 105.504,214.173 105.275,214.347 105.382 C 214.595 105.536,214.600 105.439,214.369 104.932 C 214.207 104.577,213.959 104.358,213.818 104.445 C 213.676 104.532,213.637 104.481,213.730 104.330 C 213.823 104.180,213.722 103.879,213.505 103.663 C 213.288 103.446,213.125 103.199,213.142 103.113 C 213.186 102.889,210.543 99.888,210.414 100.017 C 210.355 100.076,209.955 99.795,209.525 99.394 C 209.095 98.992,208.654 98.719,208.543 98.787 C 208.433 98.855,208.203 98.741,208.031 98.534 C 207.859 98.327,207.616 98.220,207.492 98.297 C 207.368 98.373,207.011 98.257,206.700 98.039 C 206.142 97.649,201.096 97.494,199.745 97.826 M205.307 99.552 C 210.102 100.801,213.147 105.107,213.656 111.360 C 213.788 112.971,214.006 114.702,214.142 115.207 C 214.714 117.333,214.769 119.798,214.249 119.962 C 213.984 120.045,213.554 120.229,213.294 120.369 C 212.933 120.563,212.690 120.506,212.274 120.127 C 210.578 118.585,209.557 118.671,207.857 120.497 C 206.288 122.183,206.690 122.323,203.314 118.910 C 200.334 115.897,199.733 115.615,196.303 115.615 C 192.914 115.615,191.406 116.442,190.020 119.058 C 186.553 125.608,179.919 128.324,175.158 125.144 C 165.434 118.651,168.294 103.087,179.559 101.190 C 180.987 100.950,181.948 100.976,184.928 101.339 C 189.824 101.935,193.360 101.779,196.431 100.833 C 202.317 99.020,202.926 98.932,205.307 99.552 M189.994 99.857 C 190.239 99.921,190.641 99.921,190.886 99.857 C 191.131 99.793,190.931 99.740,190.440 99.740 C 189.949 99.740,189.748 99.793,189.994 99.857 M199.309 117.504 C 199.829 117.772,201.317 119.083,202.616 120.417 C 205.964 123.857,207.172 124.113,208.846 121.739 C 209.741 120.469,210.151 120.353,211.064 121.112 L 211.675 121.621 211.104 122.228 C 210.537 122.832,210.468 123.651,210.970 123.818 C 211.114 123.866,211.745 123.442,212.371 122.875 C 214.993 120.502,218.196 121.565,219.275 125.164 C 220.049 127.748,215.483 131.400,213.517 129.769 C 213.039 129.372,212.365 129.609,212.365 130.174 C 212.365 130.752,213.109 131.276,213.943 131.286 C 214.320 131.290,214.692 131.395,214.768 131.519 C 215.144 132.128,214.095 137.512,212.842 141.402 C 210.190 149.635,199.682 154.722,192.512 151.243 C 190.167 150.106,189.675 149.143,189.675 145.694 C 189.675 143.176,189.439 140.988,189.025 139.672 C 188.931 139.371,189.280 139.037,190.274 138.476 C 191.708 137.667,192.898 136.167,192.640 135.494 C 192.400 134.870,191.814 135.067,191.093 136.013 C 190.717 136.505,189.966 137.134,189.424 137.411 L 188.437 137.914 187.282 135.815 C 186.647 134.660,185.553 132.861,184.851 131.816 C 183.331 129.552,183.341 129.519,185.251 130.484 C 187.115 131.426,187.633 131.995,188.022 133.524 C 188.443 135.186,189.598 135.372,189.470 133.758 C 189.401 132.886,189.447 132.798,189.896 132.940 C 190.265 133.057,190.444 132.956,190.570 132.560 C 190.783 131.888,191.069 132.102,187.699 130.410 C 184.548 128.827,184.381 128.638,185.787 128.248 C 187.771 127.697,189.173 128.142,190.771 129.831 C 192.196 131.337,193.373 131.153,192.436 129.570 C 190.899 126.975,186.970 125.988,184.068 127.469 C 183.293 127.864,182.908 127.943,182.710 127.745 C 182.513 127.548,182.545 127.470,182.823 127.470 C 184.483 127.470,188.927 123.711,190.910 120.631 C 192.955 117.454,193.570 117.059,196.505 117.033 C 197.858 117.022,198.620 117.149,199.309 117.504 M202.835 123.356 C 202.532 123.692,201.919 123.871,200.755 123.965 C 191.963 124.670,191.748 137.922,200.528 137.922 C 202.282 137.922,201.805 136.759,199.902 136.398 C 197.272 135.899,195.284 133.650,195.284 131.172 C 195.284 130.338,195.322 130.293,195.786 130.584 C 196.223 130.856,196.401 130.790,197.137 130.076 C 197.603 129.624,198.128 129.254,198.304 129.254 C 198.678 129.254,199.604 131.175,199.612 131.968 C 199.618 132.522,200.237 132.944,200.660 132.682 C 201.145 132.382,200.879 130.674,200.144 129.373 L 199.397 128.048 200.765 126.866 C 202.372 125.479,202.759 125.431,204.161 126.447 C 205.328 127.292,206.187 128.754,206.462 130.362 C 206.702 131.772,207.602 131.907,207.731 130.552 C 207.921 128.566,205.749 125.228,203.850 124.588 C 203.660 124.524,203.682 124.356,203.919 124.070 C 204.611 123.231,203.570 122.545,202.835 123.356 M200.118 125.764 C 195.329 130.046,195.173 130.159,195.560 129.048 C 196.154 127.344,198.474 125.453,199.991 125.436 C 200.424 125.431,200.441 125.476,200.118 125.764 M183.210 132.441 C 183.421 132.651,183.505 132.823,183.398 132.823 C 183.291 132.823,183.427 133.004,183.699 133.225 C 183.971 133.445,184.022 133.551,183.811 133.460 C 183.601 133.369,183.700 133.533,184.031 133.824 C 184.362 134.115,184.534 134.355,184.413 134.357 C 184.293 134.359,184.308 134.445,184.449 134.548 C 184.897 134.878,185.507 135.749,185.131 135.523 C 184.851 135.354,184.851 135.412,185.129 135.856 C 185.313 136.151,185.558 136.393,185.672 136.393 C 185.787 136.393,185.816 136.498,185.736 136.627 C 185.656 136.756,185.773 137.043,185.994 137.264 C 186.231 137.501,186.277 137.667,186.106 137.667 C 185.946 137.667,185.641 137.494,185.430 137.283 C 185.218 137.071,184.951 136.956,184.837 137.026 C 184.723 137.097,184.561 136.976,184.477 136.757 C 184.393 136.539,184.217 136.427,184.086 136.508 C 183.954 136.589,183.754 136.511,183.642 136.333 C 183.438 136.012,183.394 135.874,183.333 135.358 C 183.316 135.209,183.188 135.158,183.049 135.244 C 182.905 135.333,182.862 135.231,182.949 135.004 C 183.033 134.786,182.993 134.608,182.861 134.608 C 182.730 134.608,182.609 134.465,182.593 134.289 C 182.577 134.114,182.512 133.627,182.449 133.206 C 182.275 132.042,182.543 131.773,183.210 132.441 M207.922 138.222 C 207.863 138.408,207.679 139.191,207.512 139.962 C 206.922 142.689,205.486 144.446,203.030 145.444 C 201.432 146.094,200.972 146.893,202.105 147.054 C 204.819 147.440,208.761 143.029,208.877 139.477 C 208.922 138.107,208.242 137.213,207.922 138.222 M191.882 140.234 C 191.081 142.668,191.035 143.554,191.683 144.140 C 192.745 145.101,195.851 144.885,196.002 143.839 C 196.092 143.218,196.086 143.216,193.945 143.273 C 192.248 143.318,192.301 143.473,193.131 140.874 C 193.818 138.721,193.799 138.177,193.038 138.177 C 192.666 138.177,192.409 138.635,191.882 140.234 M215.114 143.977 C 218.540 151.482,217.541 157.388,212.369 160.203 C 208.689 162.205,207.034 161.310,206.726 157.149 C 206.613 155.618,206.401 153.745,206.255 152.986 C 206.108 152.227,206.018 151.586,206.054 151.562 C 206.089 151.537,206.692 151.130,207.393 150.657 C 210.190 148.772,212.462 146.111,213.532 143.468 C 214.158 141.922,214.179 141.929,215.114 143.977 M230.365 168.662 C 230.179 169.149,234.437 173.614,235.088 173.614 C 236.200 173.614,235.786 172.749,233.609 170.525 C 231.431 168.299,230.672 167.863,230.365 168.662 M119.822 171.328 C 119.822 171.473,120.007 171.875,120.233 172.221 L 120.645 172.849 125.473 172.849 L 130.300 172.849 129.619 171.957 L 128.939 171.064 124.380 171.064 C 121.408 171.064,119.822 171.156,119.822 171.328 M196.918 173.550 C 197.523 176.925,197.625 178.093,197.514 180.370 C 197.374 183.245,196.763 185.202,195.517 186.770 C 194.217 188.406,194.875 189.593,196.261 188.110 C 198.140 186.099,199.295 181.961,199.011 178.261 C 198.866 176.380,198.703 175.343,198.209 173.168 C 197.949 172.026,196.710 172.393,196.918 173.550 M238.547 177.779 C 238.475 177.967,238.878 178.914,239.443 179.883 C 241.687 183.732,242.303 187.076,241.175 189.288 L 240.667 190.284 241.742 189.278 C 243.188 187.927,243.204 187.899,243.208 186.819 C 243.224 183.019,239.390 175.583,238.547 177.779 M148.346 181.772 C 148.161 182.263,148.034 182.750,148.064 182.855 C 148.095 182.960,147.966 183.047,147.777 183.047 C 147.279 183.047,146.495 183.977,146.822 184.180 C 146.968 184.270,147.682 184.414,148.408 184.500 L 149.727 184.656 149.556 183.581 C 149.461 182.990,149.226 182.140,149.033 181.693 L 148.683 180.880 148.346 181.772 M202.513 185.084 C 200.247 185.998,200.907 188.169,204.723 192.352 C 208.835 196.859,208.827 198.019,204.681 198.375 C 200.850 198.704,199.282 200.829,200.761 203.688 C 201.558 205.230,206.147 206.527,206.852 205.410 C 207.211 204.842,206.724 204.472,205.609 204.464 C 203.163 204.447,201.520 203.203,201.743 201.539 C 201.918 200.234,202.448 199.873,204.191 199.871 C 209.913 199.865,210.644 196.866,206.143 191.871 C 202.720 188.073,202.118 186.932,203.224 186.341 C 204.314 185.757,206.530 186.810,209.495 189.320 C 210.371 190.061,211.265 190.767,211.481 190.888 C 211.818 191.077,211.744 191.327,210.976 192.602 C 208.977 195.922,209.174 201.268,211.329 202.160 C 212.824 202.780,215.169 201.657,215.169 200.321 C 215.169 199.963,215.388 199.872,216.252 199.872 C 218.249 199.870,220.911 197.347,219.940 196.376 C 219.560 195.997,219.430 196.068,218.291 197.281 C 217.032 198.622,216.387 198.859,215.413 198.337 C 213.746 197.445,214.576 195.449,217.679 192.885 C 220.991 190.147,226.393 193.068,227.063 197.960 C 227.250 199.324,227.397 199.468,228.103 198.973 C 228.556 198.657,228.598 198.472,228.406 197.646 C 228.000 195.898,228.050 195.793,229.296 195.793 C 231.427 195.793,234.224 195.100,235.373 194.285 C 237.834 192.541,237.859 192.483,235.861 193.154 C 234.062 193.757,229.837 194.514,228.255 194.517 C 227.606 194.519,227.339 194.343,226.894 193.623 C 225.480 191.335,223.504 190.635,218.228 190.556 C 213.268 190.481,213.019 190.403,210.062 187.996 C 206.600 185.178,204.391 184.326,202.513 185.084 M146.753 185.459 C 144.243 186.354,142.193 190.498,143.658 191.714 C 144.258 192.212,144.722 191.627,144.742 190.347 C 144.787 187.324,148.276 185.164,149.420 187.451 C 150.380 189.371,152.819 191.460,154.101 191.460 C 154.628 191.460,154.619 192.774,154.084 193.903 C 152.956 196.279,149.256 196.651,146.891 194.626 C 145.361 193.316,143.997 193.752,145.296 195.136 C 148.144 198.167,153.698 197.841,155.365 194.545 C 156.184 192.924,156.137 190.440,155.288 190.440 C 153.579 190.440,150.993 188.138,150.372 186.065 C 150.037 184.947,148.780 184.737,146.753 185.459 M215.738 191.969 L 216.499 191.969 215.078 193.504 C 213.385 195.333,212.860 196.688,213.366 197.920 C 213.885 199.180,213.981 200.098,213.637 200.512 C 213.191 201.050,211.676 201.005,211.387 200.446 C 209.944 197.651,212.022 191.381,214.245 191.824 C 214.648 191.904,215.320 191.969,215.738 191.969 M194.854 204.503 C 196.228 205.235,196.497 207.010,195.391 208.050 C 194.746 208.657,194.640 208.669,189.464 208.745 L 184.194 208.823 184.193 206.515 L 184.192 204.207 189.245 204.207 C 192.597 204.207,194.485 204.306,194.854 204.503 M210.325 204.713 C 210.025 204.904,210.005 205.055,210.233 205.410 C 210.635 206.038,212.081 205.937,214.149 205.138 L 215.806 204.497 213.257 204.483 C 211.855 204.475,210.535 204.579,210.325 204.713 M110.034 236.463 C 109.509 236.643,108.847 237.002,108.561 237.260 C 107.301 238.401,107.330 237.950,107.330 256.456 L 107.330 273.805 111.026 273.805 L 114.723 273.805 114.723 261.378 L 114.723 248.950 126.769 260.986 C 140.431 274.637,140.213 274.469,142.670 273.280 C 144.896 272.202,144.806 273.040,144.806 253.457 L 144.806 236.329 141.109 236.329 L 137.412 236.329 137.412 248.566 C 137.412 255.296,137.326 260.803,137.220 260.803 C 137.114 260.803,131.694 255.461,125.174 248.933 C 118.655 242.404,113.104 236.942,112.839 236.795 C 111.837 236.239,110.979 236.137,110.034 236.463 M70.159 237.108 C 66.575 238.900,65.970 240.492,66.076 247.862 C 66.167 254.240,66.259 254.610,68.238 256.520 C 70.458 258.662,70.204 258.627,83.946 258.709 L 96.126 258.782 96.055 262.533 L 95.985 266.284 81.007 266.350 L 66.029 266.416 66.029 270.120 L 66.029 273.823 81.899 273.750 L 97.769 273.678 98.996 273.051 C 102.657 271.181,103.378 269.438,103.378 262.460 C 103.378 255.523,102.737 253.944,99.171 252.093 L 98.024 251.498 85.723 251.427 L 73.423 251.356 73.423 247.539 L 73.423 243.722 88.464 243.722 L 103.505 243.722 103.505 240.025 L 103.505 236.329 87.612 236.329 L 71.719 236.329 70.159 237.108 M148.630 240.025 L 148.630 243.722 156.150 243.722 L 163.671 243.722 163.671 255.067 L 163.671 266.412 156.150 266.412 L 148.630 266.412 148.630 270.108 L 148.630 273.805 167.368 273.805 L 186.106 273.805 186.106 270.108 L 186.106 266.412 178.585 266.412 L 171.064 266.412 171.064 255.067 L 171.064 243.722 178.585 243.722 L 186.106 243.722 186.106 240.025 L 186.106 236.329 167.368 236.329 L 148.630 236.329 148.630 240.025 M189.930 240.025 L 189.930 243.722 197.451 243.722 L 204.971 243.722 204.971 258.764 L 204.971 273.805 208.668 273.805 L 212.365 273.805 212.365 258.764 L 212.365 243.722 219.885 243.722 L 227.406 243.722 227.406 240.025 L 227.406 236.329 208.668 236.329 L 189.930 236.329 189.930 240.025 M235.615 237.108 C 233.842 237.995,232.943 238.939,232.073 240.832 L 231.467 242.149 231.540 255.364 C 231.611 268.362,231.622 268.595,232.165 269.598 C 232.926 271.005,234.430 272.394,235.946 273.091 L 237.221 273.678 253.091 273.749 L 268.961 273.820 268.961 270.116 L 268.961 266.412 253.920 266.412 L 238.878 266.412 238.878 255.067 L 238.878 243.722 253.920 243.722 L 268.961 243.722 268.961 240.025 L 268.961 236.329 253.068 236.329 L 237.175 236.329 235.615 237.108 M272.785 255.067 L 272.785 273.805 276.482 273.805 L 280.178 273.805 280.178 266.284 L 280.178 258.764 291.523 258.764 L 302.868 258.764 302.868 266.284 L 302.868 273.805 306.565 273.805 L 310.261 273.805 310.261 255.067 L 310.261 236.329 306.565 236.329 L 302.868 236.329 302.868 243.850 L 302.868 251.370 291.523 251.370 L 280.178 251.370 280.178 243.850 L 280.178 236.329 276.482 236.329 L 272.785 236.329 272.785 255.067 " stroke="none" fill="#2c2453" fill-rule="evenodd"></path><path id="path4" d="M200.382 99.664 C 199.471 99.919,197.693 100.445,196.431 100.833 C 193.360 101.779,189.824 101.935,184.928 101.339 C 179.137 100.634,176.081 101.482,172.948 104.661 C 163.856 113.886,173.141 131.273,183.964 125.289 C 186.371 123.958,188.689 121.573,190.020 119.058 C 191.406 116.442,192.914 115.615,196.303 115.615 C 199.733 115.615,200.334 115.897,203.314 118.910 C 206.690 122.323,206.288 122.183,207.857 120.497 C 209.557 118.671,210.578 118.585,212.274 120.127 C 212.690 120.506,212.933 120.563,213.294 120.369 C 213.554 120.229,213.984 120.045,214.249 119.962 C 214.769 119.798,214.714 117.333,214.142 115.207 C 214.006 114.702,213.788 112.971,213.656 111.360 C 212.961 102.834,207.204 97.762,200.382 99.664 M202.167 120.156 C 202.167 120.200,202.540 120.573,202.996 120.985 L 203.824 121.734 203.075 120.905 C 202.377 120.133,202.167 119.959,202.167 120.156 M188.263 123.964 L 186.998 125.303 188.337 124.038 C 189.580 122.862,189.792 122.626,189.602 122.626 C 189.561 122.626,188.959 123.228,188.263 123.964 M186.679 128.155 C 186.925 128.219,187.326 128.219,187.572 128.155 C 187.817 128.091,187.616 128.039,187.126 128.039 C 186.635 128.039,186.434 128.091,186.679 128.155 M195.693 129.174 C 195.733 129.340,195.628 129.532,195.461 129.600 C 195.254 129.684,195.249 129.730,195.444 129.744 C 195.602 129.755,195.889 129.570,196.081 129.333 C 196.273 129.096,196.297 128.982,196.134 129.079 C 195.971 129.177,195.789 129.171,195.730 129.065 C 195.670 128.959,195.654 129.008,195.693 129.174 M207.758 130.656 C 207.673 131.249,207.522 131.417,207.087 131.402 C 206.779 131.392,206.585 131.478,206.656 131.594 C 207.081 132.281,208.126 131.395,207.969 130.479 C 207.882 129.969,207.854 129.993,207.758 130.656 M214.070 131.459 C 214.377 131.526,214.679 131.804,214.741 132.078 C 214.829 132.465,214.847 132.448,214.820 131.999 C 214.795 131.574,214.618 131.410,214.149 131.380 C 213.618 131.345,213.605 131.358,214.070 131.459 M192.341 138.194 C 192.249 138.344,192.242 138.535,192.326 138.619 C 192.410 138.703,192.479 138.625,192.479 138.445 C 192.479 138.234,192.704 138.161,193.109 138.238 C 193.455 138.304,193.678 138.260,193.604 138.140 C 193.413 137.832,192.542 137.869,192.341 138.194 M218.169 139.127 C 218.627 139.184,219.316 139.182,219.699 139.124 C 220.082 139.066,219.707 139.020,218.866 139.021 C 218.024 139.022,217.711 139.070,218.169 139.127 M222.626 139.118 C 222.871 139.182,223.273 139.182,223.518 139.118 C 223.764 139.054,223.563 139.001,223.072 139.001 C 222.581 139.001,222.380 139.054,222.626 139.118 M215.488 139.373 C 215.733 139.437,216.134 139.437,216.380 139.373 C 216.625 139.309,216.424 139.256,215.934 139.256 C 215.443 139.256,215.242 139.309,215.488 139.373 M239.643 146.150 C 239.643 146.189,240.532 147.078,241.619 148.126 L 243.595 150.032 241.689 148.056 C 239.919 146.221,239.643 145.964,239.643 146.150 M210.325 148.247 C 209.706 148.878,209.256 149.395,209.327 149.395 C 209.397 149.395,209.961 148.878,210.580 148.247 C 211.199 147.616,211.649 147.100,211.578 147.100 C 211.508 147.100,210.944 147.616,210.325 148.247 M244.742 151.514 C 244.742 151.558,245.115 151.931,245.570 152.342 L 246.399 153.091 245.650 152.263 C 244.952 151.490,244.742 151.317,244.742 151.514 M196.880 152.382 C 197.268 152.440,197.842 152.439,198.155 152.378 C 198.469 152.318,198.152 152.270,197.451 152.272 C 196.750 152.274,196.493 152.323,196.880 152.382 M205.308 157.808 C 205.308 158.719,205.354 159.092,205.411 158.636 C 205.467 158.180,205.467 157.435,205.411 156.979 C 205.354 156.523,205.308 156.896,205.308 157.808 M206.829 158.190 C 206.831 158.891,206.880 159.148,206.939 158.760 C 206.997 158.373,206.996 157.799,206.935 157.485 C 206.875 157.172,206.827 157.489,206.829 158.190 M214.265 158.636 L 213.257 159.720 214.340 158.712 C 215.348 157.775,215.541 157.553,215.348 157.553 C 215.306 157.553,214.819 158.040,214.265 158.636 M184.928 160.612 C 184.928 162.224,184.969 162.884,185.019 162.078 C 185.070 161.272,185.070 159.952,185.019 159.146 C 184.969 158.340,184.928 158.999,184.928 160.612 M208.732 162.576 C 209.047 162.637,209.563 162.637,209.879 162.576 C 210.194 162.516,209.936 162.466,209.305 162.466 C 208.674 162.466,208.416 162.516,208.732 162.576 M185.405 168.133 C 185.408 168.693,185.460 168.893,185.521 168.576 C 185.582 168.259,185.580 167.800,185.516 167.556 C 185.452 167.312,185.402 167.572,185.405 168.133 M233.397 170.300 C 234.512 171.421,235.482 172.339,235.552 172.339 C 235.622 172.339,234.767 171.421,233.652 170.300 C 232.537 169.178,231.567 168.260,231.497 168.260 C 231.427 168.260,232.282 169.178,233.397 170.300 M123.213 173.039 C 124.587 173.085,126.767 173.085,128.057 173.039 C 129.346 172.993,128.222 172.955,125.558 172.955 C 122.894 172.955,121.838 172.993,123.213 173.039 M150.751 173.040 C 154.652 173.080,160.962 173.080,164.773 173.040 C 168.584 173.000,165.392 172.968,157.680 172.968 C 149.968 172.968,146.850 173.000,150.751 173.040 M198.912 176.928 C 198.912 177.419,198.964 177.620,199.029 177.374 C 199.093 177.129,199.093 176.727,199.029 176.482 C 198.964 176.236,198.912 176.437,198.912 176.928 M194.689 187.550 C 194.459 187.781,194.473 188.597,194.710 188.743 C 194.815 188.808,194.901 188.528,194.901 188.121 C 194.901 187.714,194.892 187.380,194.880 187.380 C 194.868 187.380,194.782 187.457,194.689 187.550 M201.405 188.273 C 201.405 188.413,201.633 188.872,201.912 189.293 C 202.572 190.289,202.573 189.935,201.913 188.853 C 201.633 188.393,201.404 188.133,201.405 188.273 M240.904 189.355 C 240.328 190.504,240.336 190.618,240.930 189.728 C 241.239 189.266,241.438 188.836,241.373 188.771 C 241.309 188.706,241.097 188.969,240.904 189.355 M150.159 188.990 C 150.159 189.034,150.532 189.407,150.988 189.818 L 151.816 190.567 151.068 189.739 C 150.370 188.966,150.159 188.793,150.159 188.990 M155.179 190.350 C 155.486 190.417,155.794 190.665,155.865 190.902 C 155.958 191.211,155.979 191.189,155.942 190.822 C 155.907 190.476,155.686 190.299,155.256 190.271 C 154.724 190.236,154.711 190.248,155.179 190.350 M215.870 190.620 C 216.185 190.680,216.702 190.680,217.017 190.620 C 217.333 190.559,217.075 190.509,216.444 190.509 C 215.813 190.509,215.554 190.559,215.870 190.620 M237.918 192.084 C 237.128 192.520,237.027 192.649,237.475 192.649 C 237.685 192.649,238.047 192.439,238.279 192.182 C 238.761 191.650,238.722 191.639,237.918 192.084 M204.971 192.862 C 205.447 193.352,205.894 193.754,205.964 193.754 C 206.034 193.754,205.702 193.352,205.226 192.862 C 204.751 192.371,204.304 191.969,204.234 191.969 C 204.164 191.969,204.496 192.371,204.971 192.862 M206.246 192.049 C 206.246 192.093,206.619 192.466,207.075 192.878 L 207.903 193.627 207.154 192.798 C 206.456 192.026,206.246 191.852,206.246 192.049 M215.284 193.053 L 214.277 194.136 215.360 193.129 C 216.368 192.191,216.561 191.969,216.368 191.969 C 216.326 191.969,215.839 192.457,215.284 193.053 M235.819 193.001 C 235.539 193.190,235.634 193.213,236.176 193.087 C 236.746 192.954,236.868 192.991,236.710 193.246 C 236.574 193.467,236.605 193.516,236.804 193.393 C 237.151 193.178,236.948 192.732,236.505 192.738 C 236.338 192.740,236.029 192.858,235.819 193.001 M149.968 195.969 C 150.214 196.033,150.615 196.033,150.860 195.969 C 151.106 195.905,150.905 195.853,150.414 195.853 C 149.924 195.853,149.723 195.905,149.968 195.969 M228.489 195.969 C 228.735 196.033,229.136 196.033,229.382 195.969 C 229.627 195.905,229.426 195.853,228.936 195.853 C 228.445 195.853,228.244 195.905,228.489 195.969 M210.894 198.088 C 210.894 198.579,210.947 198.779,211.011 198.534 C 211.075 198.289,211.075 197.887,211.011 197.642 C 210.947 197.396,210.894 197.597,210.894 198.088 M215.997 200.048 C 216.243 200.112,216.644 200.112,216.890 200.048 C 217.135 199.984,216.934 199.932,216.444 199.932 C 215.953 199.932,215.752 199.984,215.997 200.048 M201.716 201.912 C 201.716 202.403,201.769 202.604,201.833 202.358 C 201.897 202.113,201.897 201.711,201.833 201.466 C 201.769 201.221,201.716 201.421,201.716 201.912 M186.439 202.867 C 188.094 202.912,190.733 202.912,192.302 202.867 C 193.872 202.822,192.518 202.786,189.293 202.786 C 186.068 202.786,184.783 202.823,186.439 202.867 M186.693 204.397 C 188.208 204.442,190.617 204.442,192.047 204.397 C 193.477 204.351,192.237 204.314,189.293 204.314 C 186.348 204.315,185.178 204.352,186.693 204.397 M204.525 205.912 C 204.771 205.976,205.172 205.976,205.417 205.912 C 205.663 205.848,205.462 205.795,204.971 205.795 C 204.481 205.795,204.280 205.848,204.525 205.912 M184.380 206.756 C 184.380 207.247,184.433 207.447,184.497 207.202 C 184.561 206.957,184.561 206.555,184.497 206.310 C 184.433 206.064,184.380 206.265,184.380 206.756 M195.236 207.831 C 194.859 208.221,194.639 208.540,194.746 208.540 C 194.987 208.540,196.175 207.295,196.028 207.195 C 195.969 207.155,195.613 207.442,195.236 207.831 M177.713 208.778 C 178.215 208.876,179.190 208.878,179.880 208.782 C 180.944 208.635,180.806 208.608,178.967 208.604 C 177.454 208.601,177.076 208.653,177.713 208.778 M186.552 208.731 C 187.989 208.776,190.341 208.776,191.778 208.731 C 193.215 208.685,192.040 208.648,189.165 208.648 C 186.291 208.648,185.115 208.685,186.552 208.731 M186.170 209.494 C 186.976 209.544,188.295 209.544,189.101 209.494 C 189.908 209.443,189.248 209.402,187.635 209.402 C 186.023 209.402,185.363 209.443,186.170 209.494 M65.879 247.419 C 65.878 249.802,65.917 250.812,65.964 249.662 C 66.011 248.512,66.011 246.562,65.964 245.328 C 65.918 244.094,65.879 245.035,65.879 247.419 M231.348 254.939 C 231.348 261.460,231.381 264.127,231.421 260.867 C 231.461 257.607,231.461 252.272,231.421 249.012 C 231.381 245.752,231.348 248.419,231.348 254.939 M95.959 262.460 C 95.960 264.563,95.999 265.390,96.047 264.297 C 96.095 263.204,96.095 261.483,96.046 260.473 C 95.998 259.463,95.959 260.357,95.959 262.460 M65.886 266.488 C 65.816 266.670,65.795 268.419,65.838 270.376 L 65.917 273.932 65.973 270.191 C 66.023 266.869,66.079 266.436,66.475 266.333 C 66.894 266.223,66.893 266.214,66.467 266.186 C 66.218 266.170,65.956 266.306,65.886 266.488 " stroke="none" fill="#5c5c5b" fill-rule="evenodd"></path></g></svg>