<?xml version="1.0" encoding="UTF-8"?>
<!DOCTYPE svg PUBLIC "-//W3C//DTD SVG 1.1//EN" "http://www.w3.org/Graphics/SVG/1.1/DTD/svg11.dtd">
<svg xmlns="http://www.w3.org/2000/svg" version="1.1" width="1587px" height="2245px" style="shape-rendering:geometricPrecision; text-rendering:geometricPrecision; image-rendering:optimizeQuality; fill-rule:evenodd; clip-rule:evenodd" xmlns:xlink="http://www.w3.org/1999/xlink">
<g><path style="opacity:0.998" fill="#96e6dc" d="M 1014.5,1292.5 C 995.961,1298.96 977.294,1305.12 958.5,1311C 938.932,1316.15 919.265,1320.65 899.5,1324.5C 727.054,1353.91 567.387,1321.41 420.5,1227C 256.281,1115.21 159.448,960.378 130,762.5C 108.03,566.941 160.03,394.274 286,244.5C 401.713,115.554 546.213,41.3869 719.5,22C 916.226,7.12573 1087.23,65.4591 1232.5,197C 1363,323.005 1432.17,477.172 1440,659.5C 1442.05,834.074 1386.05,986.741 1272,1117.5C 1200.38,1196.6 1114.54,1254.94 1014.5,1292.5 Z M 1231.5,920.5 C 1229.62,920.607 1229.29,920.107 1230.5,919C 1229.75,917.513 1228.91,917.346 1228,918.5C 1227.38,917.551 1227.55,916.718 1228.5,916C 1224.34,912.282 1221.01,908.448 1218.5,904.5C 1218.62,903.893 1218.96,903.56 1219.5,903.5C 1217.08,901.654 1215.42,899.321 1214.5,896.5C 1212.7,893.224 1210.03,890.058 1206.5,887C 1206.83,886.667 1207.17,886.333 1207.5,886C 1205.79,883.957 1203.79,882.29 1201.5,881C 1201.83,880.667 1202.17,880.333 1202.5,880C 1201.51,877.672 1199.51,875.672 1196.5,874C 1196.83,873.667 1197.17,873.333 1197.5,873C 1195.91,872.051 1194.57,870.885 1193.5,869.5C 1194.83,869.167 1194.83,868.833 1193.5,868.5C 1189.18,862.852 1184.52,857.518 1179.5,852.5C 1180.83,852.167 1180.83,851.833 1179.5,851.5C 1178.17,850.167 1176.83,848.833 1175.5,847.5C 1176.83,847.167 1176.83,846.833 1175.5,846.5C 1173.06,843.202 1170.06,840.369 1166.5,838C 1166.83,837.667 1167.17,837.333 1167.5,837C 1165.79,834.957 1163.79,833.29 1161.5,832C 1161.83,831.667 1162.17,831.333 1162.5,831C 1156.97,826.513 1152.31,821.679 1148.5,816.5C 1149.83,816.167 1149.83,815.833 1148.5,815.5C 1147.5,813.833 1146.17,812.5 1144.5,811.5C 1139.88,807.231 1135.88,802.898 1132.5,798.5C 1132.5,797.833 1132.17,797.5 1131.5,797.5C 1130.83,796.167 1129.83,795.167 1128.5,794.5C 1128.5,793.833 1128.17,793.5 1127.5,793.5C 1126.5,791.833 1125.17,790.5 1123.5,789.5C 1119.04,784.826 1114.38,780.493 1109.5,776.5C 1109.17,775.167 1108.83,775.167 1108.5,776.5C 1104.1,771.841 1098.77,767.507 1092.5,763.5C 1092.17,762.167 1091.83,762.167 1091.5,763.5C 1089.46,762.28 1087.13,760.613 1084.5,758.5C 1082.51,757.971 1080.51,756.638 1078.5,754.5C 1077.91,754.709 1077.41,755.043 1077,755.5C 1074.14,751.917 1071.14,750.25 1068,750.5C 1064.62,747.715 1061.12,746.048 1057.5,745.5C 1056.78,745.082 1056.28,744.416 1056,743.5C 1055.59,743.957 1055.09,744.291 1054.5,744.5C 1051.66,742.06 1048.66,740.726 1045.5,740.5C 1044.83,739.167 1044.17,739.167 1043.5,740.5C 1040.94,739.8 1038.44,738.8 1036,737.5C 1034,738.66 1032.17,738.66 1030.5,737.5C 1029.21,737.737 1028.21,737.404 1027.5,736.5C 1025.55,736.773 1024.05,736.107 1023,734.5C 1022.67,735.167 1022.33,735.833 1022,736.5C 1020.6,734.473 1018.94,734.14 1017,735.5C 1012.72,734.864 1008.55,733.864 1004.5,732.5C 992.669,733.822 980.835,733.822 969,732.5C 964.916,733.695 960.75,734.361 956.5,734.5C 955.583,731.995 955.583,729.662 956.5,727.5C 956.351,726.448 956.517,725.448 957,724.5C 957.654,725.696 958.154,725.696 958.5,724.5C 957.943,722.765 957.61,721.098 957.5,719.5C 960.111,715.073 960.777,710.406 959.5,705.5C 960.69,702.369 961.69,699.203 962.5,696C 961.288,694.893 961.621,694.393 963.5,694.5C 964.167,695.833 964.833,695.833 965.5,694.5C 969.019,691.351 972.685,689.184 976.5,688C 977.191,686.933 977.691,685.766 978,684.5C 978.333,684.833 978.667,685.167 979,685.5C 979.93,683.448 981.43,681.948 983.5,681C 982.655,679.442 983.321,678.442 985.5,678C 985.167,677.667 984.833,677.333 984.5,677C 985.886,674.793 987.219,672.626 988.5,670.5C 989.647,664.23 989.647,658.23 988.5,652.5C 988.631,651.761 988.464,651.094 988,650.5C 986.334,651.34 986.167,650.84 987.5,649C 985.113,646.04 983.113,643.374 981.5,641C 981.833,640.667 982.167,640.333 982.5,640C 980.907,639.051 979.574,637.885 978.5,636.5C 979.833,636.167 979.833,635.833 978.5,635.5C 977.5,633.833 976.167,632.5 974.5,631.5C 972.496,631.229 970.829,629.896 969.5,627.5C 969.167,626.167 968.833,626.167 968.5,627.5C 966.569,627.119 964.736,625.785 963,623.5C 962.333,612.833 961.667,612.833 961,623.5C 960.303,619.465 960.47,615.465 961.5,611.5C 961.278,609.945 960.611,608.611 959.5,607.5C 960.714,603.882 960.048,600.549 957.5,597.5C 957.61,595.902 957.943,594.235 958.5,592.5C 958.154,591.304 957.654,591.304 957,592.5C 955.374,589.387 955.208,586.221 956.5,583C 955.731,579.757 954.731,576.59 953.5,573.5C 953.794,567.251 953.961,560.917 954,554.5C 953.667,554.833 953.333,555.167 953,555.5C 951.436,552.538 951.269,549.538 952.5,546.5C 951.145,543.131 949.812,539.798 948.5,536.5C 947.226,535.811 947.226,534.977 948.5,534C 946.237,532.098 944.904,529.932 944.5,527.5C 945.547,526.922 945.38,526.256 944,525.5C 943.601,525.728 943.435,526.062 943.5,526.5C 942.226,525.811 942.226,524.977 943.5,524C 941.833,523 940.5,521.667 939.5,520C 940.28,518.927 940.113,517.76 939,516.5C 937.855,515.364 936.688,514.364 935.5,513.5C 936.547,512.922 936.38,512.256 935,511.5C 934.601,511.728 934.435,512.062 934.5,512.5C 933.696,510.811 932.696,509.145 931.5,507.5C 926.848,503.349 922.348,499.015 918,494.5C 917.667,494.833 917.333,495.167 917,495.5C 915.333,493.833 913.667,492.167 912,490.5C 911.667,490.833 911.333,491.167 911,491.5C 907.14,488.197 903.64,486.197 900.5,485.5C 900.167,484.167 899.833,484.167 899.5,485.5C 896.087,483.94 892.421,483.107 888.5,483C 878.234,482.656 868.068,482.49 858,482.5C 855.373,483.314 853.04,484.647 851,486.5C 850.667,485.833 850.333,485.167 850,484.5C 849.722,485.416 849.222,486.082 848.5,486.5C 847.328,487.705 845.995,487.705 844.5,486.5C 842.571,487.38 840.737,488.38 839,489.5C 838.228,489.355 837.561,489.022 837,488.5C 836.722,489.416 836.222,490.082 835.5,490.5C 834.328,491.705 832.995,491.705 831.5,490.5C 830.808,491.025 830.308,491.692 830,492.5C 829.667,492.167 829.333,491.833 829,491.5C 825.232,493.083 821.065,494.416 816.5,495.5C 815.021,496.506 813.354,496.506 811.5,495.5C 809.971,495.529 808.804,496.196 808,497.5C 799.203,497.434 790.37,497.434 781.5,497.5C 778.093,495.216 774.427,494.882 770.5,496.5C 765.423,496.355 760.757,495.022 756.5,492.5C 755.808,493.025 755.308,493.692 755,494.5C 754.196,493.196 753.029,492.529 751.5,492.5C 742.019,492.712 732.685,492.712 723.5,492.5C 722.646,493.522 721.646,494.355 720.5,495C 718.321,494.716 716.321,494.883 714.5,495.5C 710.626,497.241 706.959,498.575 703.5,499.5C 700.772,500.864 698.105,502.197 695.5,503.5C 693.914,504.675 692.414,506.009 691,507.5C 690.667,507.167 690.333,506.833 690,506.5C 689.751,507.624 689.251,508.624 688.5,509.5C 687.893,509.376 687.56,509.043 687.5,508.5C 686.167,509.833 684.833,511.167 683.5,512.5C 679.392,516.772 675.059,520.939 670.5,525C 670.833,525.333 671.167,525.667 671.5,526C 670.552,526.483 669.552,526.649 668.5,526.5C 668.473,528.199 667.806,529.533 666.5,530.5C 665.167,530.833 665.167,531.167 666.5,531.5C 663.968,533.683 662.302,536.35 661.5,539.5C 659.422,541.39 658.089,543.724 657.5,546.5C 658.043,546.56 658.376,546.893 658.5,547.5C 655.431,550.878 654.097,554.711 654.5,559C 654.046,561.03 653.38,562.863 652.5,564.5C 652.423,565.75 651.756,566.583 650.5,567C 651.097,568.062 651.43,569.228 651.5,570.5C 648.59,581.479 648.923,592.312 652.5,603C 650.069,604.092 650.069,605.259 652.5,606.5C 653.38,608.137 654.046,609.97 654.5,612C 654.43,612.765 654.097,613.265 653.5,613.5C 654.298,617.089 655.631,620.422 657.5,623.5C 657.478,626.28 658.811,628.78 661.5,631C 660.366,632.016 660.699,632.683 662.5,633C 662.167,633.333 661.833,633.667 661.5,634C 665.2,638.264 668.2,642.43 670.5,646.5C 672.974,650.415 675.974,653.915 679.5,657C 680.646,657.645 681.646,658.478 682.5,659.5C 683.086,659.291 683.586,658.957 684,658.5C 684.309,659.766 684.809,660.933 685.5,662C 689.104,663.643 692.437,665.81 695.5,668.5C 696.008,670.233 696.841,670.566 698,669.5C 700.063,671.913 702.23,673.246 704.5,673.5C 704.833,674.833 705.167,674.833 705.5,673.5C 709.46,674.371 713.294,675.704 717,677.5C 722.45,676.57 727.95,676.237 733.5,676.5C 733.833,677.5 734.5,678.167 735.5,678.5C 735.5,678.833 735.5,679.167 735.5,679.5C 734.453,680.078 734.62,680.744 736,681.5C 736.399,681.272 736.565,680.938 736.5,680.5C 737.774,681.189 737.774,682.023 736.5,683C 737.167,683.333 737.833,683.667 738.5,684C 737.177,684.816 736.511,685.983 736.5,687.5C 735.167,687.833 735.167,688.167 736.5,688.5C 736.672,689.492 736.338,690.158 735.5,690.5C 734.559,692.466 733.559,694.466 732.5,696.5C 732.931,697.293 733.265,698.127 733.5,699C 730.86,703.782 730.86,708.616 733.5,713.5C 733.167,714.167 732.833,714.833 732.5,715.5C 734.275,718.289 735.275,720.955 735.5,723.5C 735.918,724.222 736.584,724.722 737.5,725C 737.167,725.333 736.833,725.667 736.5,726C 738.037,727.11 738.703,728.61 738.5,730.5C 739.552,730.351 740.552,730.517 741.5,731C 741.167,731.333 740.833,731.667 740.5,732C 745.28,737.048 750.113,741.215 755,744.5C 755.333,744.167 755.667,743.833 756,743.5C 759.33,746.21 762.83,747.543 766.5,747.5C 769.187,747.336 771.854,747.503 774.5,748C 773.66,749.666 774.16,749.833 776,748.5C 776.617,749.449 776.451,750.282 775.5,751C 777.335,751.928 777.668,753.094 776.5,754.5C 777.025,755.192 777.692,755.692 778.5,756C 778.167,756.333 777.833,756.667 777.5,757C 779.02,759.596 779.853,762.429 780,765.5C 780.667,777.167 780.667,788.833 780,800.5C 772.804,807.486 766.971,814.819 762.5,822.5C 761.167,822.833 761.167,823.167 762.5,823.5C 761.055,825.133 759.721,826.966 758.5,829C 759.774,829.977 759.774,830.811 758.5,831.5C 758.426,833.411 757.426,834.578 755.5,835C 756.022,835.561 756.355,836.228 756.5,837C 755.297,838.368 754.297,839.868 753.5,841.5C 754.164,844.18 754.164,846.014 753.5,847C 751.396,847.489 751.062,848.655 752.5,850.5C 751.186,853.9 750.186,857.4 749.5,861C 750.814,873.323 750.814,885.656 749.5,898C 749.615,899.895 750.282,901.562 751.5,903C 750.919,903.893 750.585,904.893 750.5,906C 751.665,911.011 752.665,916.011 753.5,921C 752.572,921.388 751.905,922.055 751.5,923C 752.885,924.597 753.551,926.43 753.5,928.5C 754.658,938.325 754.825,948.325 754,958.5C 753.667,957.5 753.333,956.5 753,955.5C 752.349,957.235 752.515,958.902 753.5,960.5C 751.009,961.541 751.009,962.374 753.5,963C 751.04,967.014 749.874,971.18 750,975.5C 749.617,976.056 749.117,976.389 748.5,976.5C 747.248,978.001 746.248,979.668 745.5,981.5C 744.167,981.833 744.167,982.167 745.5,982.5C 743.532,985.401 740.532,988.735 736.5,992.5C 735.128,993.512 733.795,994.512 732.5,995.5C 731.833,995.5 731.5,995.833 731.5,996.5C 729.673,998.132 727.839,999.799 726,1001.5C 724.984,1000.37 724.317,1000.7 724,1002.5C 723.667,1002.17 723.333,1001.83 723,1001.5C 721.349,1003.21 719.516,1004.54 717.5,1005.5C 715.134,1001.62 713.134,997.449 711.5,993C 711.735,992.127 712.069,991.293 712.5,990.5C 712.154,989.304 711.654,989.304 711,990.5C 711.758,986.908 710.924,983.575 708.5,980.5C 709.938,978.655 709.604,977.489 707.5,977C 707.957,976.586 708.291,976.086 708.5,975.5C 707.833,975.167 707.167,974.833 706.5,974.5C 707.713,972.149 707.047,970.316 704.5,969C 704.833,968.667 705.167,968.333 705.5,968C 700.645,963.458 695.811,958.291 691,952.5C 690.023,953.774 689.189,953.774 688.5,952.5C 686.518,951.193 684.518,949.859 682.5,948.5C 681.005,949.705 679.672,949.705 678.5,948.5C 615.5,948.5 552.5,948.5 489.5,948.5C 472.643,929.787 457.476,909.787 444,888.5C 426.349,870.876 409.016,871.21 392,889.5C 386.038,899.877 385.372,910.544 390,921.5C 395.854,930.557 401.688,939.557 407.5,948.5C 387.833,948.5 368.167,948.5 348.5,948.5C 270.096,816.943 251.596,677.276 293,529.5C 338.785,386.389 428.952,281.556 563.5,215C 695.437,155.124 829.437,150.124 965.5,200C 1116.53,261.692 1218.03,369.859 1270,524.5C 1310.83,661.833 1298,793.833 1231.5,920.5 Z M 746.5,697.5 C 747.833,698.167 748.833,699.167 749.5,700.5C 748.167,700.833 748.167,701.167 749.5,701.5C 749.738,703.478 751.071,705.145 753.5,706.5C 754.722,709.728 756.388,712.728 758.5,715.5C 759.033,717.641 760.7,719.475 763.5,721C 762.833,721.333 762.167,721.667 761.5,722C 763.548,723.956 765.214,726.123 766.5,728.5C 770.848,734.872 769.181,736.205 761.5,732.5C 761.44,733.043 761.107,733.376 760.5,733.5C 757.819,729.797 754.819,727.13 751.5,725.5C 752.833,725.167 752.833,724.833 751.5,724.5C 750.71,723.206 749.71,722.039 748.5,721C 748.833,720.667 749.167,720.333 749.5,720C 748.552,719.517 747.552,719.351 746.5,719.5C 746.5,718.5 746.5,717.5 746.5,716.5C 747.034,714.393 746.367,712.393 744.5,710.5C 745.783,707.682 745.783,704.848 744.5,702C 745.414,700.594 746.08,699.094 746.5,697.5 Z"/></g>
<g><path style="opacity:0.995" fill="#7063a6" d="M 762.5,126.5 C 926.637,124.677 1066.14,181.677 1181,297.5C 1286.76,412.381 1337.09,548.381 1332,705.5C 1322.06,855.533 1262.56,981.7 1153.5,1084C 1039.17,1185.34 905.169,1233.01 751.5,1227C 600.578,1215.78 474.078,1154.95 372,1044.5C 264.047,919.278 218.714,773.945 236,608.5C 258.897,451.456 333.397,325.622 459.5,231C 550.211,166.817 651.211,131.984 762.5,126.5 Z M 1231.5,920.5 C 1229.62,920.607 1229.29,920.107 1230.5,919C 1229.75,917.513 1228.91,917.346 1228,918.5C 1227.38,917.551 1227.55,916.718 1228.5,916C 1224.34,912.282 1221.01,908.448 1218.5,904.5C 1218.62,903.893 1218.96,903.56 1219.5,903.5C 1217.08,901.654 1215.42,899.321 1214.5,896.5C 1212.7,893.224 1210.03,890.058 1206.5,887C 1206.83,886.667 1207.17,886.333 1207.5,886C 1205.79,883.957 1203.79,882.29 1201.5,881C 1201.83,880.667 1202.17,880.333 1202.5,880C 1201.51,877.672 1199.51,875.672 1196.5,874C 1196.83,873.667 1197.17,873.333 1197.5,873C 1195.91,872.051 1194.57,870.885 1193.5,869.5C 1194.83,869.167 1194.83,868.833 1193.5,868.5C 1189.18,862.852 1184.52,857.518 1179.5,852.5C 1180.83,852.167 1180.83,851.833 1179.5,851.5C 1178.17,850.167 1176.83,848.833 1175.5,847.5C 1176.83,847.167 1176.83,846.833 1175.5,846.5C 1173.06,843.202 1170.06,840.369 1166.5,838C 1166.83,837.667 1167.17,837.333 1167.5,837C 1165.79,834.957 1163.79,833.29 1161.5,832C 1161.83,831.667 1162.17,831.333 1162.5,831C 1156.97,826.513 1152.31,821.679 1148.5,816.5C 1149.83,816.167 1149.83,815.833 1148.5,815.5C 1147.5,813.833 1146.17,812.5 1144.5,811.5C 1139.88,807.231 1135.88,802.898 1132.5,798.5C 1132.5,797.833 1132.17,797.5 1131.5,797.5C 1130.83,796.167 1129.83,795.167 1128.5,794.5C 1128.5,793.833 1128.17,793.5 1127.5,793.5C 1126.5,791.833 1125.17,790.5 1123.5,789.5C 1119.04,784.826 1114.38,780.493 1109.5,776.5C 1109.17,775.167 1108.83,775.167 1108.5,776.5C 1104.1,771.841 1098.77,767.507 1092.5,763.5C 1092.17,762.167 1091.83,762.167 1091.5,763.5C 1089.46,762.28 1087.13,760.613 1084.5,758.5C 1082.51,757.971 1080.51,756.638 1078.5,754.5C 1077.91,754.709 1077.41,755.043 1077,755.5C 1074.14,751.917 1071.14,750.25 1068,750.5C 1064.62,747.715 1061.12,746.048 1057.5,745.5C 1056.78,745.082 1056.28,744.416 1056,743.5C 1055.59,743.957 1055.09,744.291 1054.5,744.5C 1051.66,742.06 1048.66,740.726 1045.5,740.5C 1044.83,739.167 1044.17,739.167 1043.5,740.5C 1040.94,739.8 1038.44,738.8 1036,737.5C 1034,738.66 1032.17,738.66 1030.5,737.5C 1029.21,737.737 1028.21,737.404 1027.5,736.5C 1025.55,736.773 1024.05,736.107 1023,734.5C 1022.67,735.167 1022.33,735.833 1022,736.5C 1020.6,734.473 1018.94,734.14 1017,735.5C 1012.72,734.864 1008.55,733.864 1004.5,732.5C 992.669,733.822 980.835,733.822 969,732.5C 964.916,733.695 960.75,734.361 956.5,734.5C 955.583,731.995 955.583,729.662 956.5,727.5C 956.351,726.448 956.517,725.448 957,724.5C 957.654,725.696 958.154,725.696 958.5,724.5C 957.943,722.765 957.61,721.098 957.5,719.5C 960.111,715.073 960.777,710.406 959.5,705.5C 960.69,702.369 961.69,699.203 962.5,696C 961.288,694.893 961.621,694.393 963.5,694.5C 964.167,695.833 964.833,695.833 965.5,694.5C 969.019,691.351 972.685,689.184 976.5,688C 977.191,686.933 977.691,685.766 978,684.5C 978.333,684.833 978.667,685.167 979,685.5C 979.93,683.448 981.43,681.948 983.5,681C 982.655,679.442 983.321,678.442 985.5,678C 985.167,677.667 984.833,677.333 984.5,677C 985.886,674.793 987.219,672.626 988.5,670.5C 989.647,664.23 989.647,658.23 988.5,652.5C 988.631,651.761 988.464,651.094 988,650.5C 986.334,651.34 986.167,650.84 987.5,649C 985.113,646.04 983.113,643.374 981.5,641C 981.833,640.667 982.167,640.333 982.5,640C 980.907,639.051 979.574,637.885 978.5,636.5C 979.833,636.167 979.833,635.833 978.5,635.5C 977.5,633.833 976.167,632.5 974.5,631.5C 972.496,631.229 970.829,629.896 969.5,627.5C 969.167,626.167 968.833,626.167 968.5,627.5C 966.569,627.119 964.736,625.785 963,623.5C 962.333,612.833 961.667,612.833 961,623.5C 960.303,619.465 960.47,615.465 961.5,611.5C 961.278,609.945 960.611,608.611 959.5,607.5C 960.714,603.882 960.048,600.549 957.5,597.5C 957.61,595.902 957.943,594.235 958.5,592.5C 958.154,591.304 957.654,591.304 957,592.5C 955.374,589.387 955.208,586.221 956.5,583C 955.731,579.757 954.731,576.59 953.5,573.5C 953.794,567.251 953.961,560.917 954,554.5C 953.667,554.833 953.333,555.167 953,555.5C 951.436,552.538 951.269,549.538 952.5,546.5C 951.145,543.131 949.812,539.798 948.5,536.5C 947.226,535.811 947.226,534.977 948.5,534C 946.237,532.098 944.904,529.932 944.5,527.5C 945.547,526.922 945.38,526.256 944,525.5C 943.601,525.728 943.435,526.062 943.5,526.5C 942.226,525.811 942.226,524.977 943.5,524C 941.833,523 940.5,521.667 939.5,520C 940.28,518.927 940.113,517.76 939,516.5C 937.855,515.364 936.688,514.364 935.5,513.5C 936.547,512.922 936.38,512.256 935,511.5C 934.601,511.728 934.435,512.062 934.5,512.5C 933.696,510.811 932.696,509.145 931.5,507.5C 926.848,503.349 922.348,499.015 918,494.5C 917.667,494.833 917.333,495.167 917,495.5C 915.333,493.833 913.667,492.167 912,490.5C 911.667,490.833 911.333,491.167 911,491.5C 907.14,488.197 903.64,486.197 900.5,485.5C 900.167,484.167 899.833,484.167 899.5,485.5C 896.087,483.94 892.421,483.107 888.5,483C 878.234,482.656 868.068,482.49 858,482.5C 855.373,483.314 853.04,484.647 851,486.5C 850.667,485.833 850.333,485.167 850,484.5C 849.722,485.416 849.222,486.082 848.5,486.5C 847.328,487.705 845.995,487.705 844.5,486.5C 842.571,487.38 840.737,488.38 839,489.5C 838.228,489.355 837.561,489.022 837,488.5C 836.722,489.416 836.222,490.082 835.5,490.5C 834.328,491.705 832.995,491.705 831.5,490.5C 830.808,491.025 830.308,491.692 830,492.5C 829.667,492.167 829.333,491.833 829,491.5C 825.232,493.083 821.065,494.416 816.5,495.5C 815.021,496.506 813.354,496.506 811.5,495.5C 809.971,495.529 808.804,496.196 808,497.5C 799.203,497.434 790.37,497.434 781.5,497.5C 778.093,495.216 774.427,494.882 770.5,496.5C 765.423,496.355 760.757,495.022 756.5,492.5C 755.808,493.025 755.308,493.692 755,494.5C 754.196,493.196 753.029,492.529 751.5,492.5C 742.019,492.712 732.685,492.712 723.5,492.5C 722.646,493.522 721.646,494.355 720.5,495C 718.321,494.716 716.321,494.883 714.5,495.5C 710.626,497.241 706.959,498.575 703.5,499.5C 700.772,500.864 698.105,502.197 695.5,503.5C 693.914,504.675 692.414,506.009 691,507.5C 690.667,507.167 690.333,506.833 690,506.5C 689.751,507.624 689.251,508.624 688.5,509.5C 687.893,509.376 687.56,509.043 687.5,508.5C 686.167,509.833 684.833,511.167 683.5,512.5C 679.392,516.772 675.059,520.939 670.5,525C 670.833,525.333 671.167,525.667 671.5,526C 670.552,526.483 669.552,526.649 668.5,526.5C 668.473,528.199 667.806,529.533 666.5,530.5C 665.167,530.833 665.167,531.167 666.5,531.5C 663.968,533.683 662.302,536.35 661.5,539.5C 659.422,541.39 658.089,543.724 657.5,546.5C 658.043,546.56 658.376,546.893 658.5,547.5C 655.431,550.878 654.097,554.711 654.5,559C 654.046,561.03 653.38,562.863 652.5,564.5C 652.423,565.75 651.756,566.583 650.5,567C 651.097,568.062 651.43,569.228 651.5,570.5C 648.59,581.479 648.923,592.312 652.5,603C 650.069,604.092 650.069,605.259 652.5,606.5C 653.38,608.137 654.046,609.97 654.5,612C 654.43,612.765 654.097,613.265 653.5,613.5C 654.298,617.089 655.631,620.422 657.5,623.5C 657.478,626.28 658.811,628.78 661.5,631C 660.366,632.016 660.699,632.683 662.5,633C 662.167,633.333 661.833,633.667 661.5,634C 665.2,638.264 668.2,642.43 670.5,646.5C 672.974,650.415 675.974,653.915 679.5,657C 680.646,657.645 681.646,658.478 682.5,659.5C 683.086,659.291 683.586,658.957 684,658.5C 684.309,659.766 684.809,660.933 685.5,662C 689.104,663.643 692.437,665.81 695.5,668.5C 696.008,670.233 696.841,670.566 698,669.5C 700.063,671.913 702.23,673.246 704.5,673.5C 704.833,674.833 705.167,674.833 705.5,673.5C 709.46,674.371 713.294,675.704 717,677.5C 722.45,676.57 727.95,676.237 733.5,676.5C 733.833,677.5 734.5,678.167 735.5,678.5C 735.5,678.833 735.5,679.167 735.5,679.5C 734.453,680.078 734.62,680.744 736,681.5C 736.399,681.272 736.565,680.938 736.5,680.5C 737.774,681.189 737.774,682.023 736.5,683C 737.167,683.333 737.833,683.667 738.5,684C 737.177,684.816 736.511,685.983 736.5,687.5C 735.167,687.833 735.167,688.167 736.5,688.5C 736.672,689.492 736.338,690.158 735.5,690.5C 734.559,692.466 733.559,694.466 732.5,696.5C 732.931,697.293 733.265,698.127 733.5,699C 730.86,703.782 730.86,708.616 733.5,713.5C 733.167,714.167 732.833,714.833 732.5,715.5C 734.275,718.289 735.275,720.955 735.5,723.5C 735.918,724.222 736.584,724.722 737.5,725C 737.167,725.333 736.833,725.667 736.5,726C 738.037,727.11 738.703,728.61 738.5,730.5C 739.552,730.351 740.552,730.517 741.5,731C 741.167,731.333 740.833,731.667 740.5,732C 745.28,737.048 750.113,741.215 755,744.5C 755.333,744.167 755.667,743.833 756,743.5C 759.33,746.21 762.83,747.543 766.5,747.5C 769.187,747.336 771.854,747.503 774.5,748C 773.66,749.666 774.16,749.833 776,748.5C 776.617,749.449 776.451,750.282 775.5,751C 777.335,751.928 777.668,753.094 776.5,754.5C 777.025,755.192 777.692,755.692 778.5,756C 778.167,756.333 777.833,756.667 777.5,757C 779.02,759.596 779.853,762.429 780,765.5C 780.667,777.167 780.667,788.833 780,800.5C 772.804,807.486 766.971,814.819 762.5,822.5C 761.167,822.833 761.167,823.167 762.5,823.5C 761.055,825.133 759.721,826.966 758.5,829C 759.774,829.977 759.774,830.811 758.5,831.5C 758.426,833.411 757.426,834.578 755.5,835C 756.022,835.561 756.355,836.228 756.5,837C 755.297,838.368 754.297,839.868 753.5,841.5C 754.164,844.18 754.164,846.014 753.5,847C 751.396,847.489 751.062,848.655 752.5,850.5C 751.186,853.9 750.186,857.4 749.5,861C 750.814,873.323 750.814,885.656 749.5,898C 749.615,899.895 750.282,901.562 751.5,903C 750.919,903.893 750.585,904.893 750.5,906C 751.665,911.011 752.665,916.011 753.5,921C 752.572,921.388 751.905,922.055 751.5,923C 752.885,924.597 753.551,926.43 753.5,928.5C 754.658,938.325 754.825,948.325 754,958.5C 753.667,957.5 753.333,956.5 753,955.5C 752.349,957.235 752.515,958.902 753.5,960.5C 751.009,961.541 751.009,962.374 753.5,963C 751.04,967.014 749.874,971.18 750,975.5C 749.617,976.056 749.117,976.389 748.5,976.5C 747.248,978.001 746.248,979.668 745.5,981.5C 744.167,981.833 744.167,982.167 745.5,982.5C 743.532,985.401 740.532,988.735 736.5,992.5C 735.128,993.512 733.795,994.512 732.5,995.5C 731.833,995.5 731.5,995.833 731.5,996.5C 729.673,998.132 727.839,999.799 726,1001.5C 724.984,1000.37 724.317,1000.7 724,1002.5C 723.667,1002.17 723.333,1001.83 723,1001.5C 721.349,1003.21 719.516,1004.54 717.5,1005.5C 715.134,1001.62 713.134,997.449 711.5,993C 711.735,992.127 712.069,991.293 712.5,990.5C 712.154,989.304 711.654,989.304 711,990.5C 711.758,986.908 710.924,983.575 708.5,980.5C 709.938,978.655 709.604,977.489 707.5,977C 707.957,976.586 708.291,976.086 708.5,975.5C 707.833,975.167 707.167,974.833 706.5,974.5C 707.713,972.149 707.047,970.316 704.5,969C 704.833,968.667 705.167,968.333 705.5,968C 700.645,963.458 695.811,958.291 691,952.5C 690.023,953.774 689.189,953.774 688.5,952.5C 686.518,951.193 684.518,949.859 682.5,948.5C 681.005,949.705 679.672,949.705 678.5,948.5C 615.5,948.5 552.5,948.5 489.5,948.5C 472.643,929.787 457.476,909.787 444,888.5C 426.349,870.876 409.016,871.21 392,889.5C 386.038,899.877 385.372,910.544 390,921.5C 395.854,930.557 401.688,939.557 407.5,948.5C 387.833,948.5 368.167,948.5 348.5,948.5C 270.096,816.943 251.596,677.276 293,529.5C 338.785,386.389 428.952,281.556 563.5,215C 695.437,155.124 829.437,150.124 965.5,200C 1116.53,261.692 1218.03,369.859 1270,524.5C 1310.83,661.833 1298,793.833 1231.5,920.5 Z M 746.5,697.5 C 747.833,698.167 748.833,699.167 749.5,700.5C 748.167,700.833 748.167,701.167 749.5,701.5C 749.738,703.478 751.071,705.145 753.5,706.5C 754.722,709.728 756.388,712.728 758.5,715.5C 759.033,717.641 760.7,719.475 763.5,721C 762.833,721.333 762.167,721.667 761.5,722C 763.548,723.956 765.214,726.123 766.5,728.5C 770.848,734.872 769.181,736.205 761.5,732.5C 761.44,733.043 761.107,733.376 760.5,733.5C 757.819,729.797 754.819,727.13 751.5,725.5C 752.833,725.167 752.833,724.833 751.5,724.5C 750.71,723.206 749.71,722.039 748.5,721C 748.833,720.667 749.167,720.333 749.5,720C 748.552,719.517 747.552,719.351 746.5,719.5C 746.5,718.5 746.5,717.5 746.5,716.5C 747.034,714.393 746.367,712.393 744.5,710.5C 745.783,707.682 745.783,704.848 744.5,702C 745.414,700.594 746.08,699.094 746.5,697.5 Z"/></g>
<g><path style="opacity:0.993" fill="#97e7dc" d="M 663.5,230.5 C 684.859,231.028 696.859,241.861 699.5,263C 698.292,275.865 691.958,285.198 680.5,291C 555.593,327.246 466.76,404.746 414,523.5C 383.894,596.456 375.894,671.789 390,749.5C 393.015,763.89 396.182,778.224 399.5,792.5C 398.072,806.758 390.739,816.592 377.5,822C 359.344,826.182 346.177,820.016 338,803.5C 301.046,664.561 322.046,535.228 401,415.5C 466.487,322.883 553.987,261.217 663.5,230.5 Z"/></g>
<g><path style="opacity:0.997" fill="#231f20" d="M 899.5,485.5 C 899.833,486.833 900.167,486.833 900.5,485.5C 903.64,486.197 907.14,488.197 911,491.5C 911.333,491.167 911.667,490.833 912,490.5C 913.667,492.167 915.333,493.833 917,495.5C 917.333,495.167 917.667,494.833 918,494.5C 922.348,499.015 926.848,503.349 931.5,507.5C 932.696,509.145 933.696,510.811 934.5,512.5C 934.5,513.167 934.833,513.5 935.5,513.5C 936.688,514.364 937.855,515.364 939,516.5C 940.113,517.76 940.28,518.927 939.5,520C 940.5,521.667 941.833,523 943.5,524C 942.226,524.977 942.226,525.811 943.5,526.5C 943.5,527.167 943.833,527.5 944.5,527.5C 944.904,529.932 946.237,532.098 948.5,534C 947.226,534.977 947.226,535.811 948.5,536.5C 949.812,539.798 951.145,543.131 952.5,546.5C 951.269,549.538 951.436,552.538 953,555.5C 953.333,555.167 953.667,554.833 954,554.5C 953.961,560.917 953.794,567.251 953.5,573.5C 954.731,576.59 955.731,579.757 956.5,583C 955.208,586.221 955.374,589.387 957,592.5C 957.654,591.304 958.154,591.304 958.5,592.5C 957.943,594.235 957.61,595.902 957.5,597.5C 960.048,600.549 960.714,603.882 959.5,607.5C 960.611,608.611 961.278,609.945 961.5,611.5C 960.47,615.465 960.303,619.465 961,623.5C 961.667,612.833 962.333,612.833 963,623.5C 964.736,625.785 966.569,627.119 968.5,627.5C 968.833,628.833 969.167,628.833 969.5,627.5C 970.829,629.896 972.496,631.229 974.5,631.5C 976.167,632.5 977.5,633.833 978.5,635.5C 977.167,635.833 977.167,636.167 978.5,636.5C 979.574,637.885 980.907,639.051 982.5,640C 982.167,640.333 981.833,640.667 981.5,641C 983.113,643.374 985.113,646.04 987.5,649C 986.167,650.84 986.334,651.34 988,650.5C 988.464,651.094 988.631,651.761 988.5,652.5C 989.647,658.23 989.647,664.23 988.5,670.5C 987.219,672.626 985.886,674.793 984.5,677C 984.833,677.333 985.167,677.667 985.5,678C 983.321,678.442 982.655,679.442 983.5,681C 981.43,681.948 979.93,683.448 979,685.5C 978.667,685.167 978.333,684.833 978,684.5C 977.691,685.766 977.191,686.933 976.5,688C 972.685,689.184 969.019,691.351 965.5,694.5C 964.833,693.167 964.167,693.167 963.5,694.5C 961.621,694.393 961.288,694.893 962.5,696C 961.69,699.203 960.69,702.369 959.5,705.5C 960.777,710.406 960.111,715.073 957.5,719.5C 957.61,721.098 957.943,722.765 958.5,724.5C 958.154,725.696 957.654,725.696 957,724.5C 956.517,725.448 956.351,726.448 956.5,727.5C 955.583,729.662 955.583,731.995 956.5,734.5C 960.75,734.361 964.916,733.695 969,732.5C 980.835,733.822 992.669,733.822 1004.5,732.5C 1008.55,733.864 1012.72,734.864 1017,735.5C 1018.94,734.14 1020.6,734.473 1022,736.5C 1022.33,735.833 1022.67,735.167 1023,734.5C 1024.05,736.107 1025.55,736.773 1027.5,736.5C 1028.21,737.404 1029.21,737.737 1030.5,737.5C 1032.17,738.66 1034,738.66 1036,737.5C 1038.44,738.8 1040.94,739.8 1043.5,740.5C 1044.17,741.833 1044.83,741.833 1045.5,740.5C 1048.66,740.726 1051.66,742.06 1054.5,744.5C 1055.09,744.291 1055.59,743.957 1056,743.5C 1056.28,744.416 1056.78,745.082 1057.5,745.5C 1061.12,746.048 1064.62,747.715 1068,750.5C 1071.14,750.25 1074.14,751.917 1077,755.5C 1077.41,755.043 1077.91,754.709 1078.5,754.5C 1080.51,756.638 1082.51,757.971 1084.5,758.5C 1087.13,760.613 1089.46,762.28 1091.5,763.5C 1091.83,764.833 1092.17,764.833 1092.5,763.5C 1098.77,767.507 1104.1,771.841 1108.5,776.5C 1108.83,777.833 1109.17,777.833 1109.5,776.5C 1114.38,780.493 1119.04,784.826 1123.5,789.5C 1125.17,790.5 1126.5,791.833 1127.5,793.5C 1126.45,794.078 1126.62,794.744 1128,795.5C 1128.4,795.272 1128.57,794.938 1128.5,794.5C 1129.83,795.167 1130.83,796.167 1131.5,797.5C 1130.45,798.078 1130.62,798.744 1132,799.5C 1132.4,799.272 1132.57,798.938 1132.5,798.5C 1135.88,802.898 1139.88,807.231 1144.5,811.5C 1146.17,812.5 1147.5,813.833 1148.5,815.5C 1147.17,815.833 1147.17,816.167 1148.5,816.5C 1152.31,821.679 1156.97,826.513 1162.5,831C 1162.17,831.333 1161.83,831.667 1161.5,832C 1163.79,833.29 1165.79,834.957 1167.5,837C 1167.17,837.333 1166.83,837.667 1166.5,838C 1170.06,840.369 1173.06,843.202 1175.5,846.5C 1174.17,846.833 1174.17,847.167 1175.5,847.5C 1176.83,848.833 1178.17,850.167 1179.5,851.5C 1178.17,851.833 1178.17,852.167 1179.5,852.5C 1184.52,857.518 1189.18,862.852 1193.5,868.5C 1192.17,868.833 1192.17,869.167 1193.5,869.5C 1194.57,870.885 1195.91,872.051 1197.5,873C 1197.17,873.333 1196.83,873.667 1196.5,874C 1199.51,875.672 1201.51,877.672 1202.5,880C 1202.17,880.333 1201.83,880.667 1201.5,881C 1203.79,882.29 1205.79,883.957 1207.5,886C 1207.17,886.333 1206.83,886.667 1206.5,887C 1210.03,890.058 1212.7,893.224 1214.5,896.5C 1215.42,899.321 1217.08,901.654 1219.5,903.5C 1218.96,903.56 1218.62,903.893 1218.5,904.5C 1221.01,908.448 1224.34,912.282 1228.5,916C 1227.55,916.718 1227.38,917.551 1228,918.5C 1228.91,917.346 1229.75,917.513 1230.5,919C 1229.29,920.107 1229.62,920.607 1231.5,920.5C 1230.17,925.16 1227.84,929.16 1224.5,932.5C 1208.79,906.947 1191.29,882.614 1172,859.5C 1150.55,834.378 1128.05,810.211 1104.5,787C 1074.5,760.825 1039.5,746.658 999.5,744.5C 984.63,743.231 969.63,743.565 954.5,745.5C 950.333,745.5 948.833,747.5 950,751.5C 959.423,767.293 966.59,783.96 971.5,801.5C 979.491,832.352 971.824,858.519 948.5,880C 936.116,889.684 922.116,893.684 906.5,892C 898.513,889.221 893.346,883.721 891,875.5C 890.35,859.718 888.684,844.051 886,828.5C 885.586,828.043 885.086,827.709 884.5,827.5C 860.88,838.327 836.546,840.16 811.5,833C 800.272,828.919 791.272,822.086 784.5,812.5C 772.691,824.45 765.358,838.783 762.5,855.5C 761.013,861.936 760.346,868.602 760.5,875.5C 760.501,880.013 760.834,884.347 761.5,888.5C 762.862,905.811 763.862,923.144 764.5,940.5C 767.274,967.38 758.274,989.213 737.5,1006C 730.805,1010.01 724.138,1014.01 717.5,1018C 723.782,1040.94 730.115,1063.77 736.5,1086.5C 741.83,1106.82 747.163,1127.16 752.5,1147.5C 776.502,1147.33 800.502,1147.5 824.5,1148C 826.86,1149.18 829.193,1150.35 831.5,1151.5C 839.938,1157.75 842.771,1166.08 840,1176.5C 839.427,1178.64 838.594,1180.64 837.5,1182.5C 836.957,1182.56 836.624,1182.89 836.5,1183.5C 838.631,1184.17 840.631,1184.84 842.5,1185.5C 806.564,1188.92 770.564,1189.42 734.5,1187C 729.272,1186.7 724.272,1185.87 719.5,1184.5C 725.842,1184.67 732.175,1184.5 738.5,1184C 746.73,1181.01 749.896,1175.18 748,1166.5C 730.899,1103.6 713.899,1040.6 697,977.5C 692.082,966.422 683.582,960.089 671.5,958.5C 614.167,958.5 556.833,958.5 499.5,958.5C 495.833,955.5 492.5,952.167 489.5,948.5C 552.5,948.5 615.5,948.5 678.5,948.5C 679.672,949.705 681.005,949.705 682.5,948.5C 684.518,949.859 686.518,951.193 688.5,952.5C 689.189,953.774 690.023,953.774 691,952.5C 695.811,958.291 700.645,963.458 705.5,968C 705.167,968.333 704.833,968.667 704.5,969C 707.047,970.316 707.713,972.149 706.5,974.5C 707.167,974.833 707.833,975.167 708.5,975.5C 708.291,976.086 707.957,976.586 707.5,977C 709.604,977.489 709.938,978.655 708.5,980.5C 710.924,983.575 711.758,986.908 711,990.5C 711.654,989.304 712.154,989.304 712.5,990.5C 712.069,991.293 711.735,992.127 711.5,993C 713.134,997.449 715.134,1001.62 717.5,1005.5C 719.516,1004.54 721.349,1003.21 723,1001.5C 723.333,1001.83 723.667,1002.17 724,1002.5C 724.317,1000.7 724.984,1000.37 726,1001.5C 727.839,999.799 729.673,998.132 731.5,996.5C 732.078,997.547 732.744,997.38 733.5,996C 733.272,995.601 732.938,995.435 732.5,995.5C 733.795,994.512 735.128,993.512 736.5,992.5C 740.532,988.735 743.532,985.401 745.5,982.5C 746.833,982.167 746.833,981.833 745.5,981.5C 746.248,979.668 747.248,978.001 748.5,976.5C 749.117,976.389 749.617,976.056 750,975.5C 749.874,971.18 751.04,967.014 753.5,963C 751.009,962.374 751.009,961.541 753.5,960.5C 752.515,958.902 752.349,957.235 753,955.5C 753.333,956.5 753.667,957.5 754,958.5C 754.825,948.325 754.658,938.325 753.5,928.5C 753.551,926.43 752.885,924.597 751.5,923C 751.905,922.055 752.572,921.388 753.5,921C 752.665,916.011 751.665,911.011 750.5,906C 750.585,904.893 750.919,903.893 751.5,903C 750.282,901.562 749.615,899.895 749.5,898C 750.814,885.656 750.814,873.323 749.5,861C 750.186,857.4 751.186,853.9 752.5,850.5C 751.062,848.655 751.396,847.489 753.5,847C 754.164,846.014 754.164,844.18 753.5,841.5C 754.297,839.868 755.297,838.368 756.5,837C 756.355,836.228 756.022,835.561 755.5,835C 757.426,834.578 758.426,833.411 758.5,831.5C 759.774,830.811 759.774,829.977 758.5,829C 759.721,826.966 761.055,825.133 762.5,823.5C 763.833,823.167 763.833,822.833 762.5,822.5C 766.971,814.819 772.804,807.486 780,800.5C 780.667,788.833 780.667,777.167 780,765.5C 779.853,762.429 779.02,759.596 777.5,757C 777.833,756.667 778.167,756.333 778.5,756C 777.692,755.692 777.025,755.192 776.5,754.5C 777.668,753.094 777.335,751.928 775.5,751C 776.451,750.282 776.617,749.449 776,748.5C 774.16,749.833 773.66,749.666 774.5,748C 771.854,747.503 769.187,747.336 766.5,747.5C 762.83,747.543 759.33,746.21 756,743.5C 755.667,743.833 755.333,744.167 755,744.5C 750.113,741.215 745.28,737.048 740.5,732C 740.833,731.667 741.167,731.333 741.5,731C 740.552,730.517 739.552,730.351 738.5,730.5C 738.703,728.61 738.037,727.11 736.5,726C 736.833,725.667 737.167,725.333 737.5,725C 736.584,724.722 735.918,724.222 735.5,723.5C 735.275,720.955 734.275,718.289 732.5,715.5C 732.833,714.833 733.167,714.167 733.5,713.5C 730.86,708.616 730.86,703.782 733.5,699C 733.265,698.127 732.931,697.293 732.5,696.5C 733.559,694.466 734.559,692.466 735.5,690.5C 736.338,690.158 736.672,689.492 736.5,688.5C 737.833,688.167 737.833,687.833 736.5,687.5C 736.511,685.983 737.177,684.816 738.5,684C 737.833,683.667 737.167,683.333 736.5,683C 737.774,682.023 737.774,681.189 736.5,680.5C 736.5,679.833 736.167,679.5 735.5,679.5C 735.5,679.167 735.5,678.833 735.5,678.5C 736.251,677.427 737.251,677.26 738.5,678C 743.101,680.798 747.768,683.298 752.5,685.5C 763.439,701.308 773.439,717.808 782.5,735C 791.634,733.562 798.301,728.562 802.5,720C 810.77,719.154 812.603,722.321 808,729.5C 802.638,737.097 795.472,742.097 786.5,744.5C 787.663,749.819 788.829,755.153 790,760.5C 790.333,773.833 790.667,787.167 791,800.5C 794.781,812.281 802.614,820.114 814.5,824C 855.452,832.945 890.286,822.112 919,791.5C 925.271,783.963 930.271,775.63 934,766.5C 942.807,743.963 947.974,720.63 949.5,696.5C 948.167,696.5 946.833,696.5 945.5,696.5C 942.208,696.353 939.208,695.353 936.5,693.5C 933.087,690.614 932.753,687.447 935.5,684C 950.197,689.113 963.03,685.947 974,674.5C 979.501,666.342 979.834,658.008 975,649.5C 960.475,628.83 945.308,628.33 929.5,648C 923.498,648.993 921.332,646.493 923,640.5C 925.018,638.65 926.851,636.65 928.5,634.5C 926.149,631.575 923.315,629.242 920,627.5C 918.018,627.99 916.351,628.99 915,630.5C 906.641,647.691 895.475,649.858 881.5,637C 873.276,627.532 864.609,618.532 855.5,610C 840.573,602.352 825.906,602.685 811.5,611C 809.333,613.167 807.167,615.333 805,617.5C 792.176,642.826 773.009,661.492 747.5,673.5C 744.065,671.278 740.398,669.278 736.5,667.5C 733.437,669.93 732.437,672.93 733.5,676.5C 727.95,676.237 722.45,676.57 717,677.5C 713.294,675.704 709.46,674.371 705.5,673.5C 705.167,672.167 704.833,672.167 704.5,673.5C 702.23,673.246 700.063,671.913 698,669.5C 696.841,670.566 696.008,670.233 695.5,668.5C 692.437,665.81 689.104,663.643 685.5,662C 684.809,660.933 684.309,659.766 684,658.5C 683.586,658.957 683.086,659.291 682.5,659.5C 681.646,658.478 680.646,657.645 679.5,657C 675.974,653.915 672.974,650.415 670.5,646.5C 668.2,642.43 665.2,638.264 661.5,634C 661.833,633.667 662.167,633.333 662.5,633C 660.699,632.683 660.366,632.016 661.5,631C 658.811,628.78 657.478,626.28 657.5,623.5C 655.631,620.422 654.298,617.089 653.5,613.5C 654.097,613.265 654.43,612.765 654.5,612C 654.046,609.97 653.38,608.137 652.5,606.5C 650.069,605.259 650.069,604.092 652.5,603C 648.923,592.312 648.59,581.479 651.5,570.5C 651.43,569.228 651.097,568.062 650.5,567C 651.756,566.583 652.423,565.75 652.5,564.5C 653.38,562.863 654.046,561.03 654.5,559C 654.097,554.711 655.431,550.878 658.5,547.5C 658.376,546.893 658.043,546.56 657.5,546.5C 658.089,543.724 659.422,541.39 661.5,539.5C 662.302,536.35 663.968,533.683 666.5,531.5C 667.833,531.167 667.833,530.833 666.5,530.5C 667.806,529.533 668.473,528.199 668.5,526.5C 669.552,526.649 670.552,526.483 671.5,526C 671.167,525.667 670.833,525.333 670.5,525C 675.059,520.939 679.392,516.772 683.5,512.5C 684.833,511.167 686.167,509.833 687.5,508.5C 687.56,509.043 687.893,509.376 688.5,509.5C 689.251,508.624 689.751,507.624 690,506.5C 690.333,506.833 690.667,507.167 691,507.5C 692.414,506.009 693.914,504.675 695.5,503.5C 698.105,502.197 700.772,500.864 703.5,499.5C 706.959,498.575 710.626,497.241 714.5,495.5C 716.321,494.883 718.321,494.716 720.5,495C 721.646,494.355 722.646,493.522 723.5,492.5C 732.685,492.712 742.019,492.712 751.5,492.5C 753.029,492.529 754.196,493.196 755,494.5C 755.308,493.692 755.808,493.025 756.5,492.5C 760.757,495.022 765.423,496.355 770.5,496.5C 774.427,494.882 778.093,495.216 781.5,497.5C 790.37,497.434 799.203,497.434 808,497.5C 808.804,496.196 809.971,495.529 811.5,495.5C 813.354,496.506 815.021,496.506 816.5,495.5C 821.065,494.416 825.232,493.083 829,491.5C 829.333,491.833 829.667,492.167 830,492.5C 830.308,491.692 830.808,491.025 831.5,490.5C 832.995,491.705 834.328,491.705 835.5,490.5C 836.222,490.082 836.722,489.416 837,488.5C 837.561,489.022 838.228,489.355 839,489.5C 840.737,488.38 842.571,487.38 844.5,486.5C 845.995,487.705 847.328,487.705 848.5,486.5C 849.222,486.082 849.722,485.416 850,484.5C 850.333,485.167 850.667,485.833 851,486.5C 853.04,484.647 855.373,483.314 858,482.5C 868.068,482.49 878.234,482.656 888.5,483C 892.421,483.107 896.087,483.94 899.5,485.5 Z M 746.5,697.5 C 747.833,698.167 748.833,699.167 749.5,700.5C 748.167,700.833 748.167,701.167 749.5,701.5C 749.738,703.478 751.071,705.145 753.5,706.5C 754.722,709.728 756.388,712.728 758.5,715.5C 759.033,717.641 760.7,719.475 763.5,721C 762.833,721.333 762.167,721.667 761.5,722C 763.548,723.956 765.214,726.123 766.5,728.5C 770.848,734.872 769.181,736.205 761.5,732.5C 761.44,733.043 761.107,733.376 760.5,733.5C 757.819,729.797 754.819,727.13 751.5,725.5C 752.833,725.167 752.833,724.833 751.5,724.5C 750.71,723.206 749.71,722.039 748.5,721C 748.833,720.667 749.167,720.333 749.5,720C 748.552,719.517 747.552,719.351 746.5,719.5C 746.5,718.5 746.5,717.5 746.5,716.5C 747.034,714.393 746.367,712.393 744.5,710.5C 745.783,707.682 745.783,704.848 744.5,702C 745.414,700.594 746.08,699.094 746.5,697.5 Z"/></g>
<g><path style="opacity:1" fill="#585858" d="M 901.5,498.5 C 904.412,505.144 906.245,512.144 907,519.5C 907.926,539.724 910.593,559.724 915,579.5C 915.667,585.5 915.667,591.5 915,597.5C 910.871,605.976 904.371,608.476 895.5,605C 890.833,601.667 886.167,598.333 881.5,595C 878.167,593 874.833,593 871.5,595C 868.774,598.593 865.44,601.093 861.5,602.5C 854.694,598.565 847.361,596.232 839.5,595.5C 835.688,594.676 831.688,594.176 827.5,594C 820.751,585.249 812.751,577.916 803.5,572C 785.774,565.005 768.774,566.339 752.5,576C 750,578.5 747.5,581 745,583.5C 734.118,606.052 717.952,623.885 696.5,637C 692.137,639.684 687.47,641.518 682.5,642.5C 674.121,633.756 668.287,623.423 665,611.5C 656.215,580.168 662.215,552.168 683,527.5C 701.526,508.497 724.026,500.664 750.5,504C 769.647,507.981 788.98,509.315 808.5,508C 825.775,504.431 842.775,499.764 859.5,494C 874.071,490.982 888.071,492.482 901.5,498.5 Z"/></g>
<g><path style="opacity:1" fill="#4a494a" d="M 901.5,498.5 C 930.382,514.912 944.215,539.912 943,573.5C 944.903,586.25 947.236,598.917 950,611.5C 950.667,615.5 950.667,619.5 950,623.5C 945.514,624.217 941.18,625.55 937,627.5C 932.777,624.287 928.277,621.454 923.5,619C 916.134,617.653 910.301,620.153 906,626.5C 904.333,630.666 901.499,633.666 897.5,635.5C 894.893,634.863 892.56,633.696 890.5,632C 881.301,621.635 871.634,611.801 861.5,602.5C 865.44,601.093 868.774,598.593 871.5,595C 874.833,593 878.167,593 881.5,595C 886.167,598.333 890.833,601.667 895.5,605C 904.371,608.476 910.871,605.976 915,597.5C 915.667,591.5 915.667,585.5 915,579.5C 910.593,559.724 907.926,539.724 907,519.5C 906.245,512.144 904.412,505.144 901.5,498.5 Z"/></g>
<g><path style="opacity:1" fill="#4a494a" d="M 839.5,595.5 C 821.951,593.065 807.784,598.731 797,612.5C 786.023,636.144 768.523,652.978 744.5,663C 727.154,669.439 711.154,667.106 696.5,656C 691.331,651.997 686.664,647.497 682.5,642.5C 687.47,641.518 692.137,639.684 696.5,637C 717.952,623.885 734.118,606.052 745,583.5C 747.5,581 750,578.5 752.5,576C 768.774,566.339 785.774,565.005 803.5,572C 812.751,577.916 820.751,585.249 827.5,594C 831.688,594.176 835.688,594.676 839.5,595.5 Z"/></g>
<g><path style="opacity:1" fill="#e8cdaa" d="M 936.5,693.5 C 935.07,693.421 933.736,693.754 932.5,694.5C 927.539,682.914 931.206,678.414 943.5,681C 946.378,683.45 949.712,684.116 953.5,683C 977.737,674.008 981.07,660.342 963.5,642C 961.167,640.333 958.833,638.667 956.5,637C 950.352,636.049 945.019,637.716 940.5,642C 938.123,644.508 935.789,647.008 933.5,649.5C 929.541,650.66 925.541,650.827 921.5,650C 918.505,644.299 919.171,638.965 923.5,634C 921.105,631.855 918.938,632.022 917,634.5C 909.808,649.124 898.975,652.457 884.5,644.5C 883.893,644.624 883.56,644.957 883.5,645.5C 881.754,643.748 879.754,642.415 877.5,641.5C 877.918,640.778 878.584,640.278 879.5,640C 870.527,629.694 860.86,620.027 850.5,611C 844.767,609.32 838.933,608.153 833,607.5C 825.47,608.413 818.636,610.913 812.5,615C 806.606,623.231 801.106,631.731 796,640.5C 789.179,647.941 782.012,655.107 774.5,662C 791.216,662.274 804.05,669.44 813,683.5C 815.673,693.824 811.84,697.99 801.5,696C 798.755,692.411 795.755,688.911 792.5,685.5C 786.877,681.308 780.877,678.641 774.5,677.5C 770.668,678.696 767.001,680.03 763.5,681.5C 762.167,680.833 760.833,680.167 759.5,679.5C 777.837,671.479 792.504,675.979 803.5,693C 810.879,692.424 812.379,688.924 808,682.5C 790.547,663.642 770.714,660.642 748.5,673.5C 748.167,673.5 747.833,673.5 747.5,673.5C 773.009,661.492 792.176,642.826 805,617.5C 807.167,615.333 809.333,613.167 811.5,611C 825.906,602.685 840.573,602.352 855.5,610C 864.609,618.532 873.276,627.532 881.5,637C 895.475,649.858 906.641,647.691 915,630.5C 916.351,628.99 918.018,627.99 920,627.5C 923.315,629.242 926.149,631.575 928.5,634.5C 926.851,636.65 925.018,638.65 923,640.5C 921.332,646.493 923.498,648.993 929.5,648C 945.308,628.33 960.475,628.83 975,649.5C 979.834,658.008 979.501,666.342 974,674.5C 963.03,685.947 950.197,689.113 935.5,684C 932.753,687.447 933.087,690.614 936.5,693.5 Z"/></g>
<g><path style="opacity:1" fill="#f2d6b2" d="M 877.5,641.5 C 874.859,643.804 872.192,646.138 869.5,648.5C 844.154,646.755 826.987,657.755 818,681.5C 814.159,707.736 824.326,725.903 848.5,736C 853.813,737.651 859.146,737.818 864.5,736.5C 867.335,733.329 867.002,730.496 863.5,728C 845.554,728.06 833.721,719.56 828,702.5C 826.775,697.915 826.275,693.248 826.5,688.5C 827.932,690.327 829.599,691.994 831.5,693.5C 835.892,689.103 840.558,685.103 845.5,681.5C 850.639,688.272 853.973,695.772 855.5,704C 858.025,704.896 860.192,704.396 862,702.5C 862.801,692.103 859.634,683.103 852.5,675.5C 858.177,669.824 864.177,664.491 870.5,659.5C 887.877,665.064 896.71,677.064 897,695.5C 903.224,698.812 906.39,696.812 906.5,689.5C 904.145,671.752 894.812,659.419 878.5,652.5C 880.58,650.427 882.246,648.093 883.5,645.5C 883.56,644.957 883.893,644.624 884.5,644.5C 898.975,652.457 909.808,649.124 917,634.5C 918.938,632.022 921.105,631.855 923.5,634C 919.171,638.965 918.505,644.299 921.5,650C 925.541,650.827 929.541,650.66 933.5,649.5C 935.789,647.008 938.123,644.508 940.5,642C 945.019,637.716 950.352,636.049 956.5,637C 958.833,638.667 961.167,640.333 963.5,642C 981.07,660.342 977.737,674.008 953.5,683C 949.712,684.116 946.378,683.45 943.5,681C 931.206,678.414 927.539,682.914 932.5,694.5C 933.736,693.754 935.07,693.421 936.5,693.5C 939.208,695.353 942.208,696.353 945.5,696.5C 946.263,697.268 947.263,697.768 948.5,698C 945.689,710.966 942.689,723.966 939.5,737C 935.959,756.434 927.959,774.101 915.5,790C 901.879,803.893 886.212,813.893 868.5,820C 857.46,823.815 846.127,825.482 834.5,825C 828.442,824.194 822.609,822.694 817,820.5C 807.538,817.686 800.205,811.686 795,802.5C 793.718,788.235 793.051,773.901 793,759.5C 792.811,755.83 791.977,752.33 790.5,749C 791.076,747.286 792.243,746.119 794,745.5C 794.333,745.833 794.667,746.167 795,746.5C 797.697,744.46 800.363,742.46 803,740.5C 803.099,743.74 802.599,746.906 801.5,750C 801.833,750.333 802.167,750.667 802.5,751C 801.584,751.374 800.75,751.874 800,752.5C 799.152,755.56 798.152,758.56 797,761.5C 796.636,765.867 796.47,770.034 796.5,774C 798.624,779.405 802.624,782.405 808.5,783C 813.202,783.828 817.869,783.662 822.5,782.5C 822.137,781.817 821.804,781.15 821.5,780.5C 822.833,780.5 824.167,780.5 825.5,780.5C 828.208,781.449 830.874,781.449 833.5,780.5C 834.593,776.892 834.76,773.225 834,769.5C 831.814,767.445 829.147,766.445 826,766.5C 822.785,766.929 819.618,767.595 816.5,768.5C 815.558,768.392 814.725,768.059 814,767.5C 814.708,761.657 816.375,755.991 819,750.5C 819.828,745.798 819.662,741.131 818.5,736.5C 815.78,734.889 812.78,734.056 809.5,734C 813.68,729.071 814.513,723.571 812,717.5C 808.256,716.374 804.423,716.207 800.5,717C 796.972,723.526 791.805,728.359 785,731.5C 782.586,729.055 780.752,725.722 779.5,721.5C 783.788,721.961 788.121,721.461 792.5,720C 793.021,715.035 794.021,710.201 795.5,705.5C 796.242,703.574 797.242,701.741 798.5,700C 787.049,693.276 775.383,687.11 763.5,681.5C 767.001,680.03 770.668,678.696 774.5,677.5C 780.877,678.641 786.877,681.308 792.5,685.5C 795.755,688.911 798.755,692.411 801.5,696C 811.84,697.99 815.673,693.824 813,683.5C 804.05,669.44 791.216,662.274 774.5,662C 782.012,655.107 789.179,647.941 796,640.5C 801.106,631.731 806.606,623.231 812.5,615C 818.636,610.913 825.47,608.413 833,607.5C 838.933,608.153 844.767,609.32 850.5,611C 860.86,620.027 870.527,629.694 879.5,640C 878.584,640.278 877.918,640.778 877.5,641.5 Z"/></g>
<g><path style="opacity:1" fill="#070605" d="M 877.5,641.5 C 879.754,642.415 881.754,643.748 883.5,645.5C 882.246,648.093 880.58,650.427 878.5,652.5C 875.793,654.843 873.126,657.177 870.5,659.5C 864.177,664.491 858.177,669.824 852.5,675.5C 850.142,677.529 847.808,679.529 845.5,681.5C 840.558,685.103 835.892,689.103 831.5,693.5C 829.599,691.994 827.932,690.327 826.5,688.5C 826.389,687.883 826.056,687.383 825.5,687C 826.416,686.722 827.082,686.222 827.5,685.5C 837.5,676.833 847.5,668.167 857.5,659.5C 861.526,655.805 865.526,652.138 869.5,648.5C 872.192,646.138 874.859,643.804 877.5,641.5 Z"/></g>
<g><path style="opacity:1" fill="#272222" d="M 869.5,648.5 C 865.526,652.138 861.526,655.805 857.5,659.5C 851.876,659.079 846.542,660.579 841.5,664C 834.169,669.512 829.502,676.679 827.5,685.5C 827.082,686.222 826.416,686.722 825.5,687C 826.056,687.383 826.389,687.883 826.5,688.5C 826.275,693.248 826.775,697.915 828,702.5C 833.721,719.56 845.554,728.06 863.5,728C 867.002,730.496 867.335,733.329 864.5,736.5C 859.146,737.818 853.813,737.651 848.5,736C 824.326,725.903 814.159,707.736 818,681.5C 826.987,657.755 844.154,646.755 869.5,648.5 Z"/></g>
<g><path style="opacity:1" fill="#272323" d="M 878.5,652.5 C 894.812,659.419 904.145,671.752 906.5,689.5C 906.39,696.812 903.224,698.812 897,695.5C 896.71,677.064 887.877,665.064 870.5,659.5C 873.126,657.177 875.793,654.843 878.5,652.5 Z"/></g>
<g><path style="opacity:1" fill="#e6cba8" d="M 857.5,659.5 C 847.5,668.167 837.5,676.833 827.5,685.5C 829.502,676.679 834.169,669.512 841.5,664C 846.542,660.579 851.876,659.079 857.5,659.5 Z"/></g>
<g><path style="opacity:0.997" fill="#060504" d="M 747.5,673.5 C 747.833,673.5 748.167,673.5 748.5,673.5C 751.94,675.724 755.607,677.724 759.5,679.5C 760.833,680.167 762.167,680.833 763.5,681.5C 775.383,687.11 787.049,693.276 798.5,700C 797.242,701.741 796.242,703.574 795.5,705.5C 793.402,706.484 791.402,706.151 789.5,704.5C 785.123,701.982 780.456,699.982 775.5,698.5C 768.328,693.411 760.661,689.077 752.5,685.5C 747.768,683.298 743.101,680.798 738.5,678C 737.251,677.26 736.251,677.427 735.5,678.5C 734.5,678.167 733.833,677.5 733.5,676.5C 732.437,672.93 733.437,669.93 736.5,667.5C 740.398,669.278 744.065,671.278 747.5,673.5 Z"/></g>
<g><path style="opacity:1" fill="#272222" d="M 759.5,679.5 C 755.607,677.724 751.94,675.724 748.5,673.5C 770.714,660.642 790.547,663.642 808,682.5C 812.379,688.924 810.879,692.424 803.5,693C 792.504,675.979 777.837,671.479 759.5,679.5 Z"/></g>
<g><path style="opacity:1" fill="#252121" d="M 852.5,675.5 C 859.634,683.103 862.801,692.103 862,702.5C 860.192,704.396 858.025,704.896 855.5,704C 853.973,695.772 850.639,688.272 845.5,681.5C 847.808,679.529 850.142,677.529 852.5,675.5 Z"/></g>
<g><path style="opacity:1" fill="#e9ceab" d="M 752.5,685.5 C 760.661,689.077 768.328,693.411 775.5,698.5C 779.055,704.672 781.722,711.172 783.5,718C 786.025,718.896 788.192,718.396 790,716.5C 790.607,712.463 790.44,708.463 789.5,704.5C 791.402,706.151 793.402,706.484 795.5,705.5C 794.021,710.201 793.021,715.035 792.5,720C 788.121,721.461 783.788,721.961 779.5,721.5C 780.752,725.722 782.586,729.055 785,731.5C 791.805,728.359 796.972,723.526 800.5,717C 804.423,716.207 808.256,716.374 812,717.5C 814.513,723.571 813.68,729.071 809.5,734C 812.78,734.056 815.78,734.889 818.5,736.5C 819.662,741.131 819.828,745.798 819,750.5C 816.375,755.991 814.708,761.657 814,767.5C 814.725,768.059 815.558,768.392 816.5,768.5C 819.618,767.595 822.785,766.929 826,766.5C 829.147,766.445 831.814,767.445 834,769.5C 834.76,773.225 834.593,776.892 833.5,780.5C 830.874,781.449 828.208,781.449 825.5,780.5C 830.083,779.754 832.25,777.087 832,772.5C 831.167,771.667 830.333,770.833 829.5,770C 822.872,770.495 816.205,770.495 809.5,770C 808.978,769.439 808.645,768.772 808.5,768C 812.664,758.857 815.164,749.357 816,739.5C 813.333,736.833 810.667,736.833 808,739.5C 805.642,747.596 802.975,755.596 800,763.5C 798.047,771.09 800.547,776.59 807.5,780C 812.155,780.499 816.821,780.666 821.5,780.5C 821.804,781.15 822.137,781.817 822.5,782.5C 817.869,783.662 813.202,783.828 808.5,783C 802.624,782.405 798.624,779.405 796.5,774C 796.47,770.034 796.636,765.867 797,761.5C 798.152,758.56 799.152,755.56 800,752.5C 800.75,751.874 801.584,751.374 802.5,751C 802.167,750.667 801.833,750.333 801.5,750C 802.599,746.906 803.099,743.74 803,740.5C 800.363,742.46 797.697,744.46 795,746.5C 794.667,746.167 794.333,745.833 794,745.5C 792.243,746.119 791.076,747.286 790.5,749C 791.977,752.33 792.811,755.83 793,759.5C 793.051,773.901 793.718,788.235 795,802.5C 800.205,811.686 807.538,817.686 817,820.5C 822.609,822.694 828.442,824.194 834.5,825C 846.127,825.482 857.46,823.815 868.5,820C 886.212,813.893 901.879,803.893 915.5,790C 927.959,774.101 935.959,756.434 939.5,737C 942.689,723.966 945.689,710.966 948.5,698C 947.263,697.768 946.263,697.268 945.5,696.5C 946.833,696.5 948.167,696.5 949.5,696.5C 947.974,720.63 942.807,743.963 934,766.5C 930.271,775.63 925.271,783.963 919,791.5C 890.286,822.112 855.452,832.945 814.5,824C 802.614,820.114 794.781,812.281 791,800.5C 790.667,787.167 790.333,773.833 790,760.5C 788.829,755.153 787.663,749.819 786.5,744.5C 795.472,742.097 802.638,737.097 808,729.5C 812.603,722.321 810.77,719.154 802.5,720C 798.301,728.562 791.634,733.562 782.5,735C 773.439,717.808 763.439,701.308 752.5,685.5 Z"/></g>
<g><path style="opacity:1" fill="#241f20" d="M 775.5,698.5 C 780.456,699.982 785.123,701.982 789.5,704.5C 790.44,708.463 790.607,712.463 790,716.5C 788.192,718.396 786.025,718.896 783.5,718C 781.722,711.172 779.055,704.672 775.5,698.5 Z"/></g>
<g><path style="opacity:1" fill="#262222" d="M 906.5,736.5 C 912.493,735.16 914.827,737.493 913.5,743.5C 911.277,768.883 898.277,786.049 874.5,795C 871.833,795.667 869.167,795.667 866.5,795C 863.833,792.333 863.833,789.667 866.5,787C 884.599,783.568 896.432,773.068 902,755.5C 903.084,748.95 904.584,742.616 906.5,736.5 Z"/></g>
<g><path style="opacity:1" fill="#282323" d="M 825.5,780.5 C 824.167,780.5 822.833,780.5 821.5,780.5C 816.821,780.666 812.155,780.499 807.5,780C 800.547,776.59 798.047,771.09 800,763.5C 802.975,755.596 805.642,747.596 808,739.5C 810.667,736.833 813.333,736.833 816,739.5C 815.164,749.357 812.664,758.857 808.5,768C 808.645,768.772 808.978,769.439 809.5,770C 816.205,770.495 822.872,770.495 829.5,770C 830.333,770.833 831.167,771.667 832,772.5C 832.25,777.087 830.083,779.754 825.5,780.5 Z"/></g>
<g><path style="opacity:1" fill="#bb8c8c" d="M 999.5,744.5 C 994.833,744.5 990.167,744.5 985.5,744.5C 986.905,754.512 986.738,764.512 985,774.5C 981.533,784.101 977.033,793.101 971.5,801.5C 966.59,783.96 959.423,767.293 950,751.5C 948.833,747.5 950.333,745.5 954.5,745.5C 969.63,743.565 984.63,743.231 999.5,744.5 Z"/></g>
<g><path style="opacity:1" fill="#f1b2b2" d="M 999.5,744.5 C 1039.5,746.658 1074.5,760.825 1104.5,787C 1128.05,810.211 1150.55,834.378 1172,859.5C 1191.29,882.614 1208.79,906.947 1224.5,932.5C 1221.22,939.723 1217.39,946.723 1213,953.5C 1194.6,980.95 1174.26,1006.95 1152,1031.5C 1144.93,1039.07 1137.43,1046.07 1129.5,1052.5C 1129.9,1027.33 1121.9,1005.33 1105.5,986.5C 1103.78,985.776 1101.95,985.109 1100,984.5C 1094.38,976.381 1088.21,968.714 1081.5,961.5C 1082.83,959.119 1082.66,956.786 1081,954.5C 1072.5,946 1064,937.5 1055.5,929C 1052.5,928.109 1049.84,928.609 1047.5,930.5C 1038.1,925.639 1033.93,928.305 1035,938.5C 1043.11,954.931 1052.44,970.597 1063,985.5C 1070.21,997.781 1075.88,1010.78 1080,1024.5C 1080.67,1030.83 1080.67,1037.17 1080,1043.5C 1078,1048.83 1076,1054.17 1074,1059.5C 1067.16,1070.53 1060.32,1081.53 1053.5,1092.5C 1045.56,1093.99 1037.56,1094.49 1029.5,1094C 1021.96,1080.14 1010.29,1072.14 994.5,1070C 978.167,1069.67 961.833,1069.33 945.5,1069C 938.942,1067.05 932.942,1064.05 927.5,1060C 916.254,1048.08 902.921,1039.41 887.5,1034C 883.514,1033.5 879.514,1033.33 875.5,1033.5C 876.824,1004.91 869.99,978.581 855,954.5C 852.463,951.628 849.63,949.128 846.5,947C 844.299,946.175 842.466,946.675 841,948.5C 840.832,951.177 839.999,953.51 838.5,955.5C 836.286,956.392 835.286,958.058 835.5,960.5C 842.634,985.712 842.134,1010.71 834,1035.5C 830.893,1041.39 827.059,1046.73 822.5,1051.5C 821.967,1054.12 820.967,1056.62 819.5,1059C 808.012,1067.17 795.345,1072.83 781.5,1076C 766.413,1079.36 751.413,1082.86 736.5,1086.5C 730.115,1063.77 723.782,1040.94 717.5,1018C 724.138,1014.01 730.805,1010.01 737.5,1006C 758.274,989.213 767.274,967.38 764.5,940.5C 763.862,923.144 762.862,905.811 761.5,888.5C 761.381,877.482 761.714,866.482 762.5,855.5C 765.358,838.783 772.691,824.45 784.5,812.5C 791.272,822.086 800.272,828.919 811.5,833C 836.546,840.16 860.88,838.327 884.5,827.5C 885.086,827.709 885.586,828.043 886,828.5C 888.684,844.051 890.35,859.718 891,875.5C 893.346,883.721 898.513,889.221 906.5,892C 922.116,893.684 936.116,889.684 948.5,880C 971.824,858.519 979.491,832.352 971.5,801.5C 977.033,793.101 981.533,784.101 985,774.5C 986.738,764.512 986.905,754.512 985.5,744.5C 990.167,744.5 994.833,744.5 999.5,744.5 Z"/></g>
<g><path style="opacity:1" fill="#bda88c" d="M 963.5,812.5 C 962.842,811.602 962.176,810.602 961.5,809.5C 942.279,826.766 920.446,831.433 896,823.5C 895.536,824.094 895.369,824.761 895.5,825.5C 894.224,824.614 894.224,823.614 895.5,822.5C 919.141,809.241 935.808,789.908 945.5,764.5C 954.442,779.319 960.442,795.319 963.5,812.5 Z"/></g>
<g><path style="opacity:1" fill="#f2d6b1" d="M 963.5,812.5 C 967.688,843.961 955.688,866.794 927.5,881C 921.654,883.118 915.654,883.785 909.5,883C 904.133,880.968 900.967,877.135 900,871.5C 899.854,856.023 898.354,840.689 895.5,825.5C 895.369,824.761 895.536,824.094 896,823.5C 920.446,831.433 942.279,826.766 961.5,809.5C 962.176,810.602 962.842,811.602 963.5,812.5 Z"/></g>
<g><path style="opacity:1" fill="#a07878" d="M 762.5,855.5 C 761.714,866.482 761.381,877.482 761.5,888.5C 760.834,884.347 760.501,880.013 760.5,875.5C 760.346,868.602 761.013,861.936 762.5,855.5 Z"/></g>
<g><path style="opacity:0.996" fill="#97e6db" d="M 489.5,948.5 C 492.5,952.167 495.833,955.5 499.5,958.5C 507.828,967.661 516.662,976.328 526,984.5C 531.219,991.868 532.719,999.868 530.5,1008.5C 529.68,1013.14 528.014,1017.48 525.5,1021.5C 522.455,1024.22 519.455,1026.88 516.5,1029.5C 504.822,1035.3 493.488,1034.8 482.5,1028C 457.489,1006.83 435.156,983.328 415.5,957.5C 413.496,953.834 410.829,950.834 407.5,948.5C 401.688,939.557 395.854,930.557 390,921.5C 385.372,910.544 386.038,899.877 392,889.5C 409.016,871.21 426.349,870.876 444,888.5C 457.476,909.787 472.643,929.787 489.5,948.5 Z"/></g>
<g><path style="opacity:1" fill="#bd8d8d" d="M 1047.5,930.5 C 1047.34,932.199 1047.51,933.866 1048,935.5C 1057.83,944 1067,953.167 1075.5,963C 1077.84,963.748 1079.84,963.248 1081.5,961.5C 1088.21,968.714 1094.38,976.381 1100,984.5C 1101.95,985.109 1103.78,985.776 1105.5,986.5C 1100.01,986.504 1098.18,989.171 1100,994.5C 1109.34,1007.17 1116,1021.17 1120,1036.5C 1121.77,1047.94 1119.27,1058.27 1112.5,1067.5C 1107.75,1072.59 1102.41,1076.92 1096.5,1080.5C 1082.67,1086.27 1068.34,1090.27 1053.5,1092.5C 1060.32,1081.53 1067.16,1070.53 1074,1059.5C 1076,1054.17 1078,1048.83 1080,1043.5C 1080.67,1037.17 1080.67,1030.83 1080,1024.5C 1075.88,1010.78 1070.21,997.781 1063,985.5C 1052.44,970.597 1043.11,954.931 1035,938.5C 1033.93,928.305 1038.1,925.639 1047.5,930.5 Z"/></g>
<g><path style="opacity:1" fill="#272223" d="M 1081.5,961.5 C 1079.84,963.248 1077.84,963.748 1075.5,963C 1067,953.167 1057.83,944 1048,935.5C 1047.51,933.866 1047.34,932.199 1047.5,930.5C 1049.84,928.609 1052.5,928.109 1055.5,929C 1064,937.5 1072.5,946 1081,954.5C 1082.66,956.786 1082.83,959.119 1081.5,961.5 Z"/></g>
<g><path style="opacity:1" fill="#bd8d8d" d="M 875.5,1033.5 C 862.837,1038.24 860.003,1046.58 867,1058.5C 869.176,1061.53 871.343,1064.53 873.5,1067.5C 872.542,1067.95 871.708,1068.62 871,1069.5C 866.322,1090.85 858.322,1110.85 847,1129.5C 842.06,1137.07 836.893,1144.4 831.5,1151.5C 829.193,1150.35 826.86,1149.18 824.5,1148C 800.502,1147.5 776.502,1147.33 752.5,1147.5C 747.163,1127.16 741.83,1106.82 736.5,1086.5C 751.413,1082.86 766.413,1079.36 781.5,1076C 795.345,1072.83 808.012,1067.17 819.5,1059C 820.967,1056.62 821.967,1054.12 822.5,1051.5C 821.173,1057.67 823.506,1059.84 829.5,1058C 842.375,1043.73 849.208,1026.9 850,1007.5C 851.413,990.831 849.746,974.498 845,958.5C 843.491,956.081 841.325,955.081 838.5,955.5C 839.999,953.51 840.832,951.177 841,948.5C 842.466,946.675 844.299,946.175 846.5,947C 849.63,949.128 852.463,951.628 855,954.5C 869.99,978.581 876.824,1004.91 875.5,1033.5 Z"/></g>
<g><path style="opacity:0.999" fill="#242021" d="M 348.5,948.5 C 368.167,948.5 387.833,948.5 407.5,948.5C 410.829,950.834 413.496,953.834 415.5,957.5C 395.674,958.497 375.674,958.83 355.5,958.5C 352.687,955.554 350.354,952.221 348.5,948.5 Z"/></g>
<g><path style="opacity:1" fill="#272122" d="M 838.5,955.5 C 841.325,955.081 843.491,956.081 845,958.5C 849.746,974.498 851.413,990.831 850,1007.5C 849.208,1026.9 842.375,1043.73 829.5,1058C 823.506,1059.84 821.173,1057.67 822.5,1051.5C 827.059,1046.73 830.893,1041.39 834,1035.5C 842.134,1010.71 842.634,985.712 835.5,960.5C 835.286,958.058 836.286,956.392 838.5,955.5 Z"/></g>
<g><path style="opacity:1" fill="#d0d0d0" d="M 415.5,957.5 C 435.156,983.328 457.489,1006.83 482.5,1028C 493.488,1034.8 504.822,1035.3 516.5,1029.5C 523.308,1031.69 530.308,1032.69 537.5,1032.5C 539.166,1023.18 536.833,1015.18 530.5,1008.5C 532.719,999.868 531.219,991.868 526,984.5C 516.662,976.328 507.828,967.661 499.5,958.5C 556.833,958.5 614.167,958.5 671.5,958.5C 688.826,1021.47 705.992,1084.47 723,1147.5C 724.109,1153.46 723.442,1159.13 721,1164.5C 718.736,1167.43 715.902,1169.6 712.5,1171C 692.169,1171.5 671.836,1171.67 651.5,1171.5C 540.578,1141.15 449.411,1081.15 378,991.5C 369.986,980.789 362.486,969.789 355.5,958.5C 375.674,958.83 395.674,958.497 415.5,957.5 Z"/></g>
<g><path style="opacity:1" fill="#a3a2a3" d="M 671.5,958.5 C 683.582,960.089 692.082,966.422 697,977.5C 713.899,1040.6 730.899,1103.6 748,1166.5C 749.896,1175.18 746.73,1181.01 738.5,1184C 732.175,1184.5 725.842,1184.67 719.5,1184.5C 696.222,1182.73 673.556,1178.4 651.5,1171.5C 671.836,1171.67 692.169,1171.5 712.5,1171C 715.902,1169.6 718.736,1167.43 721,1164.5C 723.442,1159.13 724.109,1153.46 723,1147.5C 705.992,1084.47 688.826,1021.47 671.5,958.5 Z"/></g>
<g><path style="opacity:1" fill="#262122" d="M 1105.5,986.5 C 1121.9,1005.33 1129.9,1027.33 1129.5,1052.5C 1124.14,1057.87 1118.47,1062.87 1112.5,1067.5C 1119.27,1058.27 1121.77,1047.94 1120,1036.5C 1116,1021.17 1109.34,1007.17 1100,994.5C 1098.18,989.171 1100.01,986.504 1105.5,986.5 Z"/></g>
<g><path style="opacity:1" fill="#2a2627" d="M 530.5,1008.5 C 536.833,1015.18 539.166,1023.18 537.5,1032.5C 530.308,1032.69 523.308,1031.69 516.5,1029.5C 519.455,1026.88 522.455,1024.22 525.5,1021.5C 528.014,1017.48 529.68,1013.14 530.5,1008.5 Z"/></g>
<g><path style="opacity:1" fill="#696667" d="M 537.5,1035.5 C 532.13,1035.39 526.797,1035.73 521.5,1036.5C 524.356,1034.99 527.523,1034.33 531,1034.5C 533.361,1034.5 535.527,1034.84 537.5,1035.5 Z"/></g>
<g><path style="opacity:1" fill="#262122" d="M 875.5,1033.5 C 879.514,1033.33 883.514,1033.5 887.5,1034C 902.921,1039.41 916.254,1048.08 927.5,1060C 932.942,1064.05 938.942,1067.05 945.5,1069C 961.833,1069.33 978.167,1069.67 994.5,1070C 1010.29,1072.14 1021.96,1080.14 1029.5,1094C 1037.56,1094.49 1045.56,1093.99 1053.5,1092.5C 1068.34,1090.27 1082.67,1086.27 1096.5,1080.5C 1088.4,1087.6 1079.73,1093.93 1070.5,1099.5C 1058.5,1101.17 1046.5,1102.83 1034.5,1104.5C 1035.5,1109.83 1036.5,1115.17 1037.5,1120.5C 1034.67,1122.42 1031.67,1124.08 1028.5,1125.5C 1027.68,1115.24 1024.85,1105.57 1020,1096.5C 1016.62,1091.62 1012.46,1087.62 1007.5,1084.5C 997.478,1079.16 986.811,1077.33 975.5,1079C 964.957,1086.54 956.124,1095.71 949,1106.5C 947.665,1114.68 951.165,1119.34 959.5,1120.5C 967.54,1117.96 973.206,1112.79 976.5,1105C 982.343,1103.64 984.843,1105.81 984,1111.5C 977.884,1124.27 967.717,1130.44 953.5,1130C 949.194,1142.49 940.527,1147.16 927.5,1144C 921.365,1140.24 917.865,1134.74 917,1127.5C 916.169,1117.45 916.502,1107.45 918,1097.5C 921.034,1088.76 925.034,1080.76 930,1073.5C 920.167,1065.67 910.333,1057.83 900.5,1050C 895.62,1047.39 890.62,1045.06 885.5,1043C 872.866,1041.04 870.032,1045.54 877,1056.5C 887.627,1069.46 898.627,1082.13 910,1094.5C 918.713,1111.57 913.88,1122.74 895.5,1128C 888.833,1128.33 882.167,1128.67 875.5,1129C 871.98,1129.5 869.48,1131.34 868,1134.5C 867.232,1138.92 867.398,1143.25 868.5,1147.5C 872.147,1152.66 877.147,1155.83 883.5,1157C 888.5,1157.33 893.5,1157.67 898.5,1158C 900.037,1159.11 900.703,1160.61 900.5,1162.5C 900.67,1163.82 900.337,1164.99 899.5,1166C 885.074,1169.37 872.574,1165.87 862,1155.5C 856.462,1146.37 856.129,1137.04 861,1127.5C 863.928,1123.62 867.761,1121.12 872.5,1120C 879.5,1119.67 886.5,1119.33 893.5,1119C 905.203,1115.66 907.703,1108.83 901,1098.5C 891.997,1088 882.83,1077.66 873.5,1067.5C 871.343,1064.53 869.176,1061.53 867,1058.5C 860.003,1046.58 862.837,1038.24 875.5,1033.5 Z"/></g>
<g><path style="opacity:1" fill="#262223" d="M 537.5,1035.5 C 539.167,1035.5 540.833,1035.5 542.5,1035.5C 545.39,1055.72 557.056,1066.72 577.5,1068.5C 579.923,1099.58 565.59,1114.41 534.5,1113C 523.928,1110.14 515.095,1104.64 508,1096.5C 507.167,1093.83 507.667,1091.5 509.5,1089.5C 514.209,1089.67 517.875,1091.84 520.5,1096C 532.524,1104.69 545.191,1105.69 558.5,1099C 565.529,1093.11 568.862,1085.61 568.5,1076.5C 555.974,1073.97 546.14,1067.31 539,1056.5C 536.646,1052.8 535.146,1048.8 534.5,1044.5C 521.994,1043.83 513.161,1049.17 508,1060.5C 507.318,1066.74 506.152,1072.74 504.5,1078.5C 501.453,1079.14 499.287,1078.14 498,1075.5C 495.26,1060.49 500.093,1048.66 512.5,1040C 515.309,1038.26 518.309,1037.09 521.5,1036.5C 526.797,1035.73 532.13,1035.39 537.5,1035.5 Z"/></g>
<g><path style="opacity:1" fill="#fbfbfb" d="M 509.5,1089.5 C 506.504,1086.5 504.837,1082.84 504.5,1078.5C 506.152,1072.74 507.318,1066.74 508,1060.5C 513.161,1049.17 521.994,1043.83 534.5,1044.5C 535.146,1048.8 536.646,1052.8 539,1056.5C 546.14,1067.31 555.974,1073.97 568.5,1076.5C 568.862,1085.61 565.529,1093.11 558.5,1099C 545.191,1105.69 532.524,1104.69 520.5,1096C 517.875,1091.84 514.209,1089.67 509.5,1089.5 Z"/></g>
<g><path style="opacity:1" fill="#efb0b0" d="M 873.5,1067.5 C 882.83,1077.66 891.997,1088 901,1098.5C 907.703,1108.83 905.203,1115.66 893.5,1119C 886.5,1119.33 879.5,1119.67 872.5,1120C 867.761,1121.12 863.928,1123.62 861,1127.5C 856.129,1137.04 856.462,1146.37 862,1155.5C 872.574,1165.87 885.074,1169.37 899.5,1166C 900.337,1164.99 900.67,1163.82 900.5,1162.5C 906.833,1162.5 913.167,1162.5 919.5,1162.5C 920.207,1166.33 922.54,1167.99 926.5,1167.5C 902.539,1175.47 877.872,1180.81 852.5,1183.5C 847.305,1183.82 842.305,1183.49 837.5,1182.5C 838.594,1180.64 839.427,1178.64 840,1176.5C 842.771,1166.08 839.938,1157.75 831.5,1151.5C 836.893,1144.4 842.06,1137.07 847,1129.5C 858.322,1110.85 866.322,1090.85 871,1069.5C 871.708,1068.62 872.542,1067.95 873.5,1067.5 Z"/></g>
<g><path style="opacity:1" fill="#ebd0ac" d="M 947.5,1078.5 C 951.167,1079.17 954.833,1079.83 958.5,1080.5C 949.806,1087.57 943.306,1096.24 939,1106.5C 938.333,1109.17 938.333,1111.83 939,1114.5C 940.821,1118.46 942.321,1122.46 943.5,1126.5C 943.833,1131.01 941.833,1133.84 937.5,1135C 935.167,1135.67 932.833,1135.67 930.5,1135C 928.036,1131.95 926.536,1128.45 926,1124.5C 923.02,1106.45 927.853,1090.95 940.5,1078C 942.797,1077.98 945.131,1078.15 947.5,1078.5 Z"/></g>
<g><path style="opacity:1" fill="#edd2ae" d="M 1007.5,1084.5 C 1013.72,1099.79 1016.39,1115.79 1015.5,1132.5C 1014.17,1133.17 1012.83,1133.83 1011.5,1134.5C 1013.51,1118.25 1011.34,1102.58 1005,1087.5C 996.763,1082.89 987.93,1081.06 978.5,1082C 967.061,1089.1 958.061,1098.44 951.5,1110C 953.278,1115.39 956.945,1117.39 962.5,1116C 964.348,1113.82 966.515,1111.99 969,1110.5C 970.705,1107.59 972.539,1104.76 974.5,1102C 977.833,1101.33 981.167,1101.33 984.5,1102C 985.752,1104.04 986.419,1106.37 986.5,1109C 984.846,1119.93 978.846,1127.6 968.5,1132C 964.179,1132.5 959.846,1132.67 955.5,1132.5C 954.875,1137.47 952.542,1141.47 948.5,1144.5C 961.483,1145.5 974.483,1145.83 987.5,1145.5C 986.22,1146.93 984.553,1147.6 982.5,1147.5C 944.5,1147.5 906.5,1147.5 868.5,1147.5C 867.398,1143.25 867.232,1138.92 868,1134.5C 869.48,1131.34 871.98,1129.5 875.5,1129C 882.167,1128.67 888.833,1128.33 895.5,1128C 913.88,1122.74 918.713,1111.57 910,1094.5C 898.627,1082.13 887.627,1069.46 877,1056.5C 870.032,1045.54 872.866,1041.04 885.5,1043C 890.62,1045.06 895.62,1047.39 900.5,1050C 910.333,1057.83 920.167,1065.67 930,1073.5C 925.034,1080.76 921.034,1088.76 918,1097.5C 916.502,1107.45 916.169,1117.45 917,1127.5C 917.865,1134.74 921.365,1140.24 927.5,1144C 940.527,1147.16 949.194,1142.49 953.5,1130C 967.717,1130.44 977.884,1124.27 984,1111.5C 984.843,1105.81 982.343,1103.64 976.5,1105C 973.206,1112.79 967.54,1117.96 959.5,1120.5C 951.165,1119.34 947.665,1114.68 949,1106.5C 956.124,1095.71 964.957,1086.54 975.5,1079C 986.811,1077.33 997.478,1079.16 1007.5,1084.5 Z"/></g>
<g><path style="opacity:1" fill="#7f7160" d="M 947.5,1078.5 C 951.555,1078.18 955.555,1078.51 959.5,1079.5C 959.376,1080.11 959.043,1080.44 958.5,1080.5C 954.833,1079.83 951.167,1079.17 947.5,1078.5 Z"/></g>
<g><path style="opacity:1" fill="#f3d7b2" d="M 1011.5,1134.5 C 1003.74,1138.71 995.743,1142.38 987.5,1145.5C 974.483,1145.83 961.483,1145.5 948.5,1144.5C 952.542,1141.47 954.875,1137.47 955.5,1132.5C 959.846,1132.67 964.179,1132.5 968.5,1132C 978.846,1127.6 984.846,1119.93 986.5,1109C 986.419,1106.37 985.752,1104.04 984.5,1102C 981.167,1101.33 977.833,1101.33 974.5,1102C 972.539,1104.76 970.705,1107.59 969,1110.5C 966.515,1111.99 964.348,1113.82 962.5,1116C 956.945,1117.39 953.278,1115.39 951.5,1110C 958.061,1098.44 967.061,1089.1 978.5,1082C 987.93,1081.06 996.763,1082.89 1005,1087.5C 1011.34,1102.58 1013.51,1118.25 1011.5,1134.5 Z"/></g>
<g><path style="opacity:1" fill="#bca68b" d="M 1007.5,1084.5 C 1012.46,1087.62 1016.62,1091.62 1020,1096.5C 1024.85,1105.57 1027.68,1115.24 1028.5,1125.5C 1024.36,1128.07 1020.03,1130.4 1015.5,1132.5C 1016.39,1115.79 1013.72,1099.79 1007.5,1084.5 Z"/></g>
<g><path style="opacity:1" fill="#eaadae" d="M 1070.5,1099.5 C 1060.04,1107.24 1049.04,1114.24 1037.5,1120.5C 1036.5,1115.17 1035.5,1109.83 1034.5,1104.5C 1046.5,1102.83 1058.5,1101.17 1070.5,1099.5 Z"/></g>
<g><path style="opacity:1" fill="#bfa98d" d="M 868.5,1147.5 C 906.5,1147.5 944.5,1147.5 982.5,1147.5C 974.289,1151.8 965.622,1155.13 956.5,1157.5C 944.829,1157.33 933.162,1157.5 921.5,1158C 919.963,1159.11 919.297,1160.61 919.5,1162.5C 913.167,1162.5 906.833,1162.5 900.5,1162.5C 900.703,1160.61 900.037,1159.11 898.5,1158C 893.5,1157.67 888.5,1157.33 883.5,1157C 877.147,1155.83 872.147,1152.66 868.5,1147.5 Z"/></g>
<g><path style="opacity:1" fill="#cdcdcd" d="M 827.5,1161.5 C 825.648,1168.18 821.314,1172.35 814.5,1174C 795.836,1174.5 777.17,1174.67 758.5,1174.5C 758.802,1171.94 758.468,1169.61 757.5,1167.5C 757.13,1163.77 756.463,1160.1 755.5,1156.5C 777.503,1156.33 799.503,1156.5 821.5,1157C 824.014,1157.88 826.014,1159.38 827.5,1161.5 Z"/></g>
<g><path style="opacity:1" fill="#272223" d="M 956.5,1157.5 C 946.921,1161.8 936.921,1165.14 926.5,1167.5C 922.54,1167.99 920.207,1166.33 919.5,1162.5C 919.297,1160.61 919.963,1159.11 921.5,1158C 933.162,1157.5 944.829,1157.33 956.5,1157.5 Z"/></g>
<g><path style="opacity:1" fill="#a4a3a4" d="M 827.5,1161.5 C 832.88,1168.06 832.547,1174.56 826.5,1181C 824.35,1182.41 822.016,1183.24 819.5,1183.5C 797.993,1183.83 776.66,1183.5 755.5,1182.5C 757.242,1177.69 757.909,1172.69 757.5,1167.5C 758.468,1169.61 758.802,1171.94 758.5,1174.5C 777.17,1174.67 795.836,1174.5 814.5,1174C 821.314,1172.35 825.648,1168.18 827.5,1161.5 Z"/></g>
<g><path style="opacity:1" fill="#6a6869" d="M 755.5,1182.5 C 776.66,1183.5 797.993,1183.83 819.5,1183.5C 797.996,1184.83 776.33,1184.83 754.5,1183.5C 754.624,1182.89 754.957,1182.56 755.5,1182.5 Z"/></g>
<g><path style="opacity:1" fill="#634d54" d="M 837.5,1182.5 C 842.305,1183.49 847.305,1183.82 852.5,1183.5C 849.373,1184.58 846.04,1185.25 842.5,1185.5C 840.631,1184.84 838.631,1184.17 836.5,1183.5C 836.624,1182.89 836.957,1182.56 837.5,1182.5 Z"/></g>
<g><path style="opacity:0.994" fill="#a492f0" d="M 1014.5,1292.5 C 1019.7,1310.09 1024.7,1327.76 1029.5,1345.5C 991.76,1359.6 953.093,1370.27 913.5,1377.5C 908.677,1359.88 904.011,1342.21 899.5,1324.5C 919.265,1320.65 938.932,1316.15 958.5,1311C 977.294,1305.12 995.961,1298.96 1014.5,1292.5 Z"/></g>
<g><path style="opacity:0.995" fill="#7063a6" d="M 1029.5,1345.5 C 1039.32,1380.44 1048.99,1415.44 1058.5,1450.5C 1020.14,1461.78 981.477,1472.45 942.5,1482.5C 933.03,1447.43 923.364,1412.43 913.5,1377.5C 953.093,1370.27 991.76,1359.6 1029.5,1345.5 Z"/></g>
<g><path style="opacity:0.995" fill="#a491f0" d="M 1122.5,1479.5 C 1049.9,1500.7 976.898,1521.03 903.5,1540.5C 902.987,1512.02 915.987,1492.69 942.5,1482.5C 981.477,1472.45 1020.14,1461.78 1058.5,1450.5C 1086.63,1445.57 1107.97,1455.24 1122.5,1479.5 Z"/></g>
<g><path style="opacity:0.996" fill="#7063a7" d="M 1122.5,1479.5 C 1130.15,1479.31 1133.31,1482.98 1132,1490.5C 1131.31,1492.35 1130.14,1493.68 1128.5,1494.5C 1054.11,1514.52 979.777,1534.86 905.5,1555.5C 897.638,1554.71 895.304,1550.71 898.5,1543.5C 900.029,1542.24 901.695,1541.24 903.5,1540.5C 976.898,1521.03 1049.9,1500.7 1122.5,1479.5 Z"/></g>
<g><path style="opacity:0.998" fill="#a491f0" d="M 1128.5,1494.5 C 1196.11,1688.99 1264.11,1883.32 1332.5,2077.5C 1231.77,2104.85 1131.1,2132.52 1030.5,2160.5C 988.71,1958.88 947.043,1757.22 905.5,1555.5C 979.777,1534.86 1054.11,1514.52 1128.5,1494.5 Z"/></g>
<g><path style="opacity:0.997" fill="#7063a7" d="M 1332.5,2077.5 C 1338.79,2080.14 1340.12,2084.47 1336.5,2090.5C 1235.5,2118.5 1134.5,2146.5 1033.5,2174.5C 1026.92,2171 1025.92,2166.33 1030.5,2160.5C 1131.1,2132.52 1231.77,2104.85 1332.5,2077.5 Z"/></g>
<g><path style="opacity:0.994" fill="#a491f0" d="M 1336.5,2090.5 C 1345.39,2116.77 1339.39,2138.94 1318.5,2157C 1314.76,2159.73 1310.76,2162.07 1306.5,2164C 1240.88,2182.49 1175.21,2200.82 1109.5,2219C 1079.29,2227.63 1055.79,2218.8 1039,2192.5C 1036.05,2186.83 1034.22,2180.83 1033.5,2174.5C 1134.5,2146.5 1235.5,2118.5 1336.5,2090.5 Z"/></g>
</svg>
